<svg width="72" height="78" viewBox="0 0 72 78" fill="none" xmlns="http://www.w3.org/2000/svg">
<path d="M32.3424 8.12495C32.3424 3.64513 28.7149 0 24.2567 0C19.7985 0 16.1712 3.64513 16.1712 8.12495V58.7142C14.1071 60.8406 12.937 63.6844 12.937 66.625C12.937 72.8965 18.0158 78 24.2568 78C30.4978 78 35.5765 72.8965 35.5765 66.625C35.5765 63.6844 34.4063 60.8406 32.3424 58.7142V8.12495ZM24.2567 74.75C19.7986 74.75 16.1712 71.1049 16.1712 66.6251C16.1712 64.3241 17.1298 62.1881 18.8717 60.6122C19.2113 60.3028 19.4055 59.8648 19.4055 59.4046V8.12495C19.4055 5.43669 21.5816 3.24995 24.2568 3.24995C26.9321 3.24995 29.1082 5.43669 29.1082 8.12495V59.4045C29.1082 59.8647 29.3024 60.3027 29.642 60.6121C31.3839 62.1879 32.3425 64.324 32.3425 66.625C32.3424 71.1049 28.7149 74.75 24.2567 74.75Z" fill="#7227AE" fill-opacity="0.8"/>
<path d="M25.8738 62.0494V34.1251C25.8738 33.2268 25.1505 32.5 24.2566 32.5C23.3627 32.5 22.6394 33.2268 22.6394 34.1251V62.0494C20.7612 62.7224 19.4053 64.5093 19.4053 66.625C19.4053 69.3133 21.5814 71.5 24.2566 71.5C26.9318 71.5 29.1079 69.3133 29.1079 66.625C29.1079 64.5093 27.752 62.7224 25.8738 62.0494ZM24.2566 68.2501C23.3644 68.2501 22.6394 67.5217 22.6394 66.625C22.6394 65.7285 23.3643 64.9999 24.2566 64.9999C25.1488 64.9999 25.8738 65.7283 25.8738 66.625C25.8738 67.5217 25.149 68.2501 24.2566 68.2501Z" fill="#7227AE" fill-opacity="0.8"/>
<path d="M11.3198 52H1.61716C0.723304 52 0 52.7268 0 53.625C0 54.5233 0.723304 55.2501 1.61716 55.2501H11.3198C12.2137 55.2501 12.937 54.5233 12.937 53.625C12.937 52.7268 12.2137 52 11.3198 52Z" fill="#7227AE" fill-opacity="0.8"/>
<path d="M11.3201 45.5H8.08591C7.19205 45.5 6.46875 46.2268 6.46875 47.1251C6.46875 48.0231 7.19205 48.75 8.08591 48.75H11.3201C12.2139 48.75 12.9372 48.0231 12.9372 47.1249C12.9372 46.2268 12.2139 45.5 11.3201 45.5Z" fill="#7227AE" fill-opacity="0.8"/>
<path d="M11.3201 39H8.08591C7.19205 39 6.46875 39.7268 6.46875 40.6251C6.46875 41.5233 7.19205 42.2501 8.08591 42.2501H11.3201C12.2139 42.2501 12.9372 41.5233 12.9372 40.6251C12.9372 39.7268 12.2139 39 11.3201 39Z" fill="#7227AE" fill-opacity="0.8"/>
<path d="M1.61716 35.7501H11.3198C12.2137 35.7501 12.937 35.0233 12.937 34.1251C12.937 33.2268 12.2137 32.5 11.3198 32.5H1.61716C0.723304 32.5 0 33.2268 0 34.1251C0 35.0233 0.723304 35.7501 1.61716 35.7501Z" fill="#7227AE" fill-opacity="0.8"/>
<path d="M1.61716 16.2501H11.3198C12.2137 16.2501 12.937 15.5233 12.937 14.6251C12.937 13.7268 12.2137 13 11.3198 13H1.61716C0.723304 13 0 13.7268 0 14.6251C0 15.5233 0.723304 16.2501 1.61716 16.2501Z" fill="#7227AE" fill-opacity="0.8"/>
<path d="M11.3201 26H8.08591C7.19205 26 6.46875 26.7268 6.46875 27.625C6.46875 28.5231 7.19205 29.2499 8.08591 29.2499H11.3201C12.2139 29.2499 12.9372 28.5231 12.9372 27.6249C12.9372 26.7268 12.2139 26 11.3201 26Z" fill="#7227AE" fill-opacity="0.8"/>
<path d="M11.3201 19.5H8.08591C7.19205 19.5 6.46875 20.2268 6.46875 21.1251C6.46875 22.0233 7.19205 22.7501 8.08591 22.7501H11.3201C12.2139 22.7501 12.9372 22.0233 12.9372 21.1251C12.9372 20.2268 12.2139 19.5 11.3201 19.5Z" fill="#7227AE" fill-opacity="0.8"/>
<path d="M46.8979 26H50.132C52.8072 26 54.9834 28.1867 54.9834 30.8749C54.9834 31.7732 55.7067 32.5 56.6005 32.5C57.4944 32.5 58.2177 31.7732 58.2177 30.8749C58.2177 26.3951 54.5903 22.75 50.1322 22.75H46.898C42.4399 22.75 38.8125 26.3951 38.8125 30.8749V43.8749C38.8125 48.3547 42.4399 51.9998 46.898 51.9998H50.132C54.5901 51.9998 58.2175 48.3547 58.2175 43.8749C58.2175 42.9767 57.4942 42.2498 56.6004 42.2498C55.7065 42.2498 54.9834 42.9767 54.9834 43.8749C54.9834 46.5632 52.8072 48.7499 50.132 48.7499H46.8979C44.2226 48.7499 42.0465 46.5632 42.0465 43.8749V30.8749C42.0465 28.1867 44.2226 26 46.8979 26Z" fill="#7227AE" fill-opacity="0.8"/>
<path d="M66.3006 22.75C63.6253 22.75 61.4492 24.9367 61.4492 27.625C61.4492 30.3133 63.6253 32.5 66.3006 32.5C68.9758 32.5 71.1519 30.3133 71.1519 27.625C71.1519 24.9369 68.9758 22.75 66.3006 22.75ZM66.3006 29.2501C65.4084 29.2501 64.6834 28.5217 64.6834 27.625C64.6834 26.7285 65.4082 26 66.3006 26C67.1929 26 67.9177 26.7283 67.9177 27.625C67.9176 28.5217 67.1927 29.2501 66.3006 29.2501Z" fill="#7227AE" fill-opacity="0.8"/>
</svg>
