<svg width="81" height="81" viewBox="0 0 81 81" fill="none" xmlns="http://www.w3.org/2000/svg">
<path d="M76.252 0C60.0578 0 40.5 11.6279 40.5 26.0676C40.5 29.4274 41.7701 32.48 44.1509 35.1955C41.7359 41.3894 40.5354 48.5165 40.5 56.6943C39.8516 54.986 39.0915 53.3592 38.2676 51.7777C39.7235 49.5377 40.5 47.1008 40.5 44.4768C40.5 30.0371 20.9422 18.4092 4.74799 18.4092C2.13039 18.4092 0 20.5394 0 23.157C0 39.3512 11.6279 58.9091 26.0693 58.9091C29.6435 58.9091 32.8824 57.5066 35.7235 54.8119C38.9436 61.608 40.5 69.6277 40.5 79.159C40.5 80.1766 41.3234 81 42.341 81C43.3585 81 44.1819 80.1766 44.1819 79.159V57.0681C44.1819 49.766 45.1296 43.4359 47.0551 37.9053C49.4477 39.6192 52.0841 40.4999 54.9307 40.4999C69.3721 40.4999 81 20.942 81 4.74782C80.9998 2.13039 78.8696 0 76.252 0ZM36.0942 48.035C31.0691 40.3448 23.654 34.2882 13.6648 29.6272C12.7444 29.2028 11.6495 29.6001 11.218 30.5171C10.7883 31.4375 11.1856 32.5342 12.1079 32.9638C22.1121 37.6326 29.2777 43.6315 33.9145 51.3964C33.7644 51.5614 33.6506 51.7357 33.4887 51.8978C31.2793 54.1072 28.7822 55.2273 26.0693 55.2273C14.0117 55.2273 3.68176 37.5931 3.68176 23.157C3.68176 22.5692 4.15999 22.0909 4.74781 22.0909C19.1839 22.0909 36.8181 32.4209 36.8181 44.4766C36.8181 45.7122 36.5554 46.8961 36.0942 48.035ZM54.9305 36.8181C52.6042 36.8181 50.4494 35.9442 48.4859 34.3165C52.4097 25.7775 59.096 19.3775 68.9261 14.5384C69.8394 14.089 70.2133 12.9851 69.7658 12.0737C69.3127 11.1623 68.2089 10.7883 67.3011 11.2341C57.2794 16.1687 50.2077 22.7849 45.8486 31.413C44.763 29.751 44.1818 27.9664 44.1818 26.0675C44.1818 14.0117 61.816 3.68176 76.252 3.68176C76.8398 3.68176 77.3181 4.16 77.3181 4.74782C77.3181 19.1839 66.9882 36.8181 54.9305 36.8181Z" fill="#7227AE" fill-opacity="0.79"/>
</svg>
