<svg width="87" height="87" viewBox="0 0 87 87" fill="none" xmlns="http://www.w3.org/2000/svg">
<path d="M86.4206 24.3065C85.6482 23.5341 84.397 23.5341 83.6247 24.3065C83.4232 24.508 83.2023 24.6597 82.9919 24.8384L62.1612 4.00905C62.3401 3.79828 62.4914 3.57695 62.6934 3.37527C63.4659 2.60283 63.4659 1.35158 62.6934 0.579328C61.921 -0.193109 60.6698 -0.193109 59.8975 0.579328C55.2633 5.21358 55.3135 11.4003 55.356 16.3706L55.3638 17.7954C55.3638 19.1992 55.7808 21.2653 56.3562 24.125C57.3014 28.8025 58.5838 35.2031 58.4105 41.1889L45.8291 28.6086C47.3466 28.5647 48.9463 28.5891 50.6832 28.7244C51.6796 28.8229 52.7223 28.0004 52.8072 26.9093C52.896 25.8203 52.0811 24.8684 50.992 24.7814C41.4572 24.0207 34.6642 25.8106 30.2385 30.2384C21.7386 38.7383 24.886 54.3365 26.7667 63.6571C27.1529 65.5742 27.4897 67.2623 27.6191 68.3962L18.6246 59.4017C18.858 59.4279 19.0352 59.4297 19.3095 59.4707C20.3676 59.6368 21.3988 58.8971 21.561 57.812C21.7271 56.7326 20.9818 55.7247 19.9042 55.5625C19.0584 55.4331 18.3478 55.3636 17.7956 55.3636L16.3705 55.3558C11.3887 55.323 5.21744 55.2613 0.579324 59.8974C-0.193108 60.6698 -0.193108 61.9211 0.579324 62.6933C0.965447 63.0795 1.4715 63.2726 1.97737 63.2726C2.48325 63.2726 2.98912 63.0795 3.37543 62.6933C3.57748 62.4915 3.79881 62.34 4.00976 62.1613L24.8389 82.9906C24.66 83.2014 24.5088 83.4229 24.3067 83.6248C23.5343 84.3972 23.5343 85.6485 24.3067 86.4207C24.6928 86.8068 25.1989 87 25.7048 87C26.2106 87 26.7165 86.8068 27.1028 86.4207C31.737 81.7865 31.6868 75.5997 31.6443 70.6294L31.6366 69.2043C31.6366 67.8005 31.2195 65.7343 30.6441 62.8746C30.5572 62.4442 30.466 61.9895 30.3746 61.5314C33.3859 62.0027 36.6821 62.3726 39.9937 62.3726C46.2114 62.3726 52.4444 61.0789 56.7618 56.7613C63.365 50.1581 62.9344 39.28 61.5338 30.3802C61.9685 30.4671 62.4613 30.5589 62.8712 30.6415C65.7329 31.219 67.7989 31.6361 69.2047 31.6361L70.6298 31.6438C71.1086 31.6477 71.5952 31.6516 72.0935 31.6516C76.774 31.6516 82.2309 31.2924 86.421 27.1023C87.1931 26.3302 87.1931 25.079 86.4206 24.3065ZM26.8435 79.4035L7.59942 60.1591C9.29221 59.608 11.1105 59.4026 12.9681 59.3372L27.6671 74.0363C27.6026 75.8915 27.3964 77.7107 26.8435 79.4035ZM29.5977 57.3903C28.9719 53.7422 28.477 49.6911 28.5897 45.81L41.161 58.3826C37.2067 58.4988 33.1471 58.0022 29.5977 57.3903ZM46.181 57.8107L29.1573 40.7852C29.6426 38.4803 30.4602 36.3497 31.7567 34.5523L52.3899 55.1842C50.5894 56.4757 48.4855 57.3282 46.181 57.8107ZM55.2444 52.4466L34.5491 31.753C36.24 30.5296 38.3267 29.681 40.7932 29.1651L57.8438 46.2138C57.3585 48.5188 56.5409 50.6491 55.2444 52.4466ZM63.6551 26.7666C62.7796 26.5892 61.779 26.3981 60.8001 26.2092C60.6073 25.2085 60.4143 24.2394 60.2336 23.343C59.8476 21.427 59.5112 19.7397 59.3816 18.6058L68.3943 27.6185C67.2596 27.489 65.5729 27.1525 63.6551 26.7666ZM74.0367 27.6693L59.3329 12.9654C59.3974 11.1093 59.6037 9.28987 60.1567 7.59633L79.4066 26.845C77.7146 27.3987 75.896 27.6054 74.0367 27.6693Z" fill="#7227AE" fill-opacity="0.8"/>
</svg>
