<svg width="113" height="112" viewBox="0 0 113 112" fill="none" xmlns="http://www.w3.org/2000/svg">
<ellipse cx="44.9854" cy="44.3058" rx="8.66213" ry="8.69742" fill="#6E25A9"/>
<ellipse cx="67.7237" cy="44.3058" rx="8.66213" ry="8.69742" fill="#6E25A9"/>
<ellipse cx="67.7237" cy="67.1359" rx="8.66213" ry="8.69742" fill="#6E25A9"/>
<path d="M96.9596 67.6802C96.9596 70.9825 94.2933 73.6596 91.0044 73.6596C87.7154 73.6596 85.0491 70.9825 85.0491 67.6802C85.0491 64.3778 87.7154 61.7007 91.0044 61.7007C94.2933 61.7007 96.9596 64.3778 96.9596 67.6802Z" fill="#6E25A9"/>
<path d="M96.9596 44.8491C96.9596 48.1515 94.2933 50.8286 91.0044 50.8286C87.7154 50.8286 85.0491 48.1515 85.0491 44.8491C85.0491 41.5467 87.7154 38.8696 91.0044 38.8696C94.2933 38.8696 96.9596 41.5467 96.9596 44.8491Z" fill="#6E25A9"/>
<path d="M96.9596 22.0181C96.9596 25.3204 94.2933 27.9975 91.0044 27.9975C87.7154 27.9975 85.0491 25.3204 85.0491 22.0181C85.0491 18.7157 87.7154 16.0386 91.0044 16.0386C94.2933 16.0386 96.9596 18.7157 96.9596 22.0181Z" fill="#6E25A9"/>
<path d="M74.222 22.0181C74.222 25.3204 71.5557 27.9975 68.2667 27.9975C64.9778 27.9975 62.3115 25.3204 62.3115 22.0181C62.3115 18.7157 64.9778 16.0386 68.2667 16.0386C71.5557 16.0386 74.222 18.7157 74.222 22.0181Z" fill="#6E25A9"/>
<path d="M51.4837 22.0181C51.4837 25.3204 48.8174 27.9975 45.5285 27.9975C42.2395 27.9975 39.5732 25.3204 39.5732 22.0181C39.5732 18.7157 42.2395 16.0386 45.5285 16.0386C48.8174 16.0386 51.4837 18.7157 51.4837 22.0181Z" fill="#6E25A9"/>
<path d="M48.2339 4.07989C48.2339 5.88119 46.7796 7.34143 44.9856 7.34143C43.1916 7.34143 41.7373 5.88119 41.7373 4.07989C41.7373 2.2786 43.1916 0.818359 44.9856 0.818359C46.7796 0.818359 48.2339 2.2786 48.2339 4.07989Z" fill="#6E25A9"/>
<path d="M48.2339 108.449C48.2339 110.25 46.7796 111.711 44.9856 111.711C43.1916 111.711 41.7373 110.25 41.7373 108.449C41.7373 106.648 43.1916 105.188 44.9856 105.188C46.7796 105.188 48.2339 106.648 48.2339 108.449Z" fill="#6E25A9"/>
<path d="M108.868 48.6539C107.074 48.6539 105.62 47.1937 105.62 45.3924C105.62 43.5911 107.074 42.1309 108.868 42.1309C110.662 42.1309 112.116 43.5911 112.116 45.3924C112.116 47.1937 110.662 48.6539 108.868 48.6539Z" fill="#6E25A9"/>
<path d="M3.84106 48.6539C2.04707 48.6539 0.592755 47.1937 0.592755 45.3924C0.592755 43.5911 2.04707 42.1309 3.84106 42.1309C5.63504 42.1309 7.08936 43.5911 7.08936 45.3924C7.08936 47.1937 5.63504 48.6539 3.84106 48.6539Z" fill="#6E25A9"/>
<path d="M70.9719 4.07989C70.9719 5.88119 69.5176 7.34143 67.7236 7.34143C65.9297 7.34143 64.4753 5.88119 64.4753 4.07989C64.4753 2.2786 65.9297 0.818359 67.7236 0.818359C69.5176 0.818359 70.9719 2.2786 70.9719 4.07989Z" fill="#6E25A9"/>
<path d="M70.9719 108.449C70.9719 110.25 69.5176 111.711 67.7236 111.711C65.9297 111.711 64.4753 110.25 64.4753 108.449C64.4753 106.648 65.9297 105.188 67.7236 105.188C69.5176 105.188 70.9719 106.648 70.9719 108.449Z" fill="#6E25A9"/>
<path d="M108.868 71.485C107.074 71.485 105.62 70.0247 105.62 68.2234C105.62 66.4222 107.074 64.9619 108.868 64.9619C110.662 64.9619 112.116 66.4222 112.116 68.2234C112.116 70.0247 110.662 71.485 108.868 71.485Z" fill="#6E25A9"/>
<path d="M3.84106 71.485C2.04707 71.485 0.592755 70.0247 0.592755 68.2234C0.592755 66.4222 2.04707 64.9619 3.84106 64.9619C5.63504 64.9619 7.08936 66.4222 7.08936 68.2234C7.08936 70.0247 5.63504 71.485 3.84106 71.485Z" fill="#6E25A9"/>
<path d="M28.7455 22.0181C28.7455 25.3204 26.0793 27.9975 22.7903 27.9975C19.5013 27.9975 16.8351 25.3204 16.8351 22.0181C16.8351 18.7157 19.5013 16.0386 22.7903 16.0386C26.0793 16.0386 28.7455 18.7157 28.7455 22.0181Z" fill="#6E25A9"/>
<path d="M27.6595 44.8486C27.6595 48.151 24.9932 50.8281 21.7042 50.8281C18.4153 50.8281 15.749 48.151 15.749 44.8486C15.749 41.5462 18.4153 38.8691 21.7042 38.8691C24.9932 38.8691 27.6595 41.5462 27.6595 44.8486Z" fill="#6E25A9"/>
<path d="M27.6595 67.6797C27.6595 70.982 24.9932 73.6591 21.7042 73.6591C18.4153 73.6591 15.749 70.982 15.749 67.6797C15.749 64.3773 18.4153 61.7002 21.7042 61.7002C24.9932 61.7002 27.6595 64.3773 27.6595 67.6797Z" fill="#6E25A9"/>
<path d="M27.6595 90.5102C27.6595 93.8126 24.9932 96.4897 21.7042 96.4897C18.4153 96.4897 15.749 93.8126 15.749 90.5102C15.749 87.2079 18.4153 84.5308 21.7042 84.5308C24.9932 84.5308 27.6595 87.2079 27.6595 90.5102Z" fill="#6E25A9"/>
<path d="M50.4016 90.5102C50.4016 93.8126 47.7354 96.4897 44.4464 96.4897C41.1575 96.4897 38.4912 93.8126 38.4912 90.5102C38.4912 87.2079 41.1575 84.5308 44.4464 84.5308C47.7354 84.5308 50.4016 87.2079 50.4016 90.5102Z" fill="#6E25A9"/>
<path d="M73.1399 90.5102C73.1399 93.8126 70.4737 96.4897 67.1847 96.4897C63.8957 96.4897 61.2295 93.8126 61.2295 90.5102C61.2295 87.2079 63.8957 84.5308 67.1847 84.5308C70.4737 84.5308 73.1399 87.2079 73.1399 90.5102Z" fill="#6E25A9"/>
<path d="M95.8782 90.5102C95.8782 93.8126 93.212 96.4897 89.923 96.4897C86.634 96.4897 83.9678 93.8126 83.9678 90.5102C83.9678 87.2079 86.634 84.5308 89.923 84.5308C93.212 84.5308 95.8782 87.2079 95.8782 90.5102Z" fill="#6E25A9"/>
<ellipse cx="44.9854" cy="67.1359" rx="8.66213" ry="8.69742" fill="#6E25A9"/>
</svg>
