<svg width="109" height="119" viewBox="0 0 109 119" fill="none" xmlns="http://www.w3.org/2000/svg">
<mask id="path-1-inside-1" fill="white">
<path d="M59.1115 102.232V98.4742C59.1115 98.0514 58.9553 97.6459 58.6772 97.3469C58.3992 97.0479 58.022 96.8799 57.6288 96.8799C57.2355 96.8799 56.8584 97.0479 56.5803 97.3469C56.3023 97.6459 56.146 98.0514 56.146 98.4742V102.232C56.146 102.655 56.3023 103.06 56.5803 103.359C56.8584 103.658 57.2355 103.826 57.6288 103.826C58.022 103.826 58.3992 103.658 58.6772 103.359C58.9553 103.06 59.1115 102.655 59.1115 102.232Z"/>
<path d="M99.0823 35.0391C99.7176 38.0373 99.7459 41.1474 99.1652 44.1583C105.124 48.4019 108.519 54.4519 108.519 60.9065C108.519 73.2454 96.0234 83.283 80.6647 83.283C80.6142 83.2803 80.5639 83.2748 80.5139 83.2666C78.6569 84.1359 76.6532 84.5844 74.6278 84.5839H59.1115V88.9085C59.1115 89.3313 58.9553 89.7368 58.6772 90.0358C58.3992 90.3348 58.022 90.5028 57.6288 90.5028C57.2355 90.5028 56.8584 90.3348 56.5803 90.0358C56.3023 89.7368 56.146 89.3313 56.146 88.9085V82.9896C56.1463 82.5669 56.3025 82.1615 56.5806 81.8625C56.8586 81.5636 57.2356 81.3956 57.6288 81.3953H74.6278C77.5165 81.3912 80.3048 80.2556 82.4712 78.201C84.6376 76.1465 86.0337 73.3137 86.3983 70.2326H67.6377C67.3458 70.2315 67.0607 70.1376 66.8182 69.9629C66.5756 69.7881 66.3865 69.5402 66.2746 69.2503C66.1626 68.9604 66.1328 68.6414 66.1889 68.3333C66.2449 68.0252 66.3843 67.7419 66.5897 67.5187L67.6233 66.4063C69.6641 64.2072 70.8896 61.2839 71.0707 58.1835C71.2517 55.083 70.3759 52.0179 68.607 49.5616L55.3411 63.8245C55.2036 63.9726 55.0402 64.0902 54.8603 64.1704C54.6805 64.2505 54.4877 64.2918 54.293 64.2918C54.0983 64.2918 53.9056 64.2505 53.7257 64.1704C53.5459 64.0902 53.3825 63.9726 53.2449 63.8245L39.979 49.5616C38.21 52.0178 37.334 55.083 37.5151 58.1835C37.6962 61.284 38.9218 64.2073 40.9627 66.4063L41.9964 67.5114C42.204 67.7342 42.3455 68.0182 42.4029 68.3275C42.4603 68.6368 42.431 68.9575 42.3188 69.2489C42.2065 69.5403 42.0164 69.7893 41.7724 69.9644C41.5285 70.1396 41.2416 70.2329 40.9483 70.2326H22.1878C22.5529 73.3132 23.9493 76.1454 26.1156 78.1993C28.2819 80.2533 31.0699 81.3885 33.9582 81.3926H50.9564C51.3497 81.3926 51.7268 81.5606 52.0049 81.8596C52.283 82.1585 52.4392 82.564 52.4392 82.9869V113.962H56.146V111.801C56.146 111.378 56.3023 110.972 56.5803 110.673C56.8584 110.374 57.2355 110.206 57.6288 110.206C58.022 110.206 58.3992 110.374 58.6772 110.673C58.9553 110.972 59.1115 111.378 59.1115 111.801V115.559C59.1115 115.981 58.9553 116.387 58.6772 116.686C58.3992 116.985 58.022 117.153 57.6288 117.153H50.9564C50.5632 117.153 50.1862 116.985 49.9082 116.686C49.6302 116.387 49.4739 115.981 49.4737 115.559V84.5839H33.9582C31.9425 84.5856 29.9479 84.1428 28.0976 83.283H27.9213C12.5626 83.283 0.0668945 73.2454 0.0668945 60.9065C0.0668945 54.4519 3.46196 48.4019 9.4209 44.1583C9.1452 42.7239 9.00609 41.263 9.00573 39.7982C9.00573 39.3754 9.16195 38.9699 9.44002 38.6709C9.71809 38.3719 10.0952 38.2039 10.4885 38.2039C10.8817 38.2039 11.2589 38.3719 11.5369 38.6709C11.815 38.9699 11.9712 39.3754 11.9712 39.7982C11.9713 41.3816 12.1621 42.9583 12.5389 44.489C12.621 44.8216 12.6007 45.1739 12.481 45.493C12.3612 45.8122 12.1485 46.081 11.8746 46.2591C6.25206 49.9296 3.03239 55.2682 3.03239 60.9065C3.03239 70.2845 11.8069 78.1075 23.3536 79.7628C20.6442 76.7929 19.1267 72.7985 19.1274 68.6383C19.1274 68.2155 19.2836 67.81 19.5617 67.511C19.8397 67.212 20.2169 67.044 20.6101 67.044H37.5558C35.3859 63.9729 34.3232 60.1612 34.564 56.3131C34.8048 52.465 36.3328 48.8406 38.8657 46.1097C39.1489 45.8214 39.5242 45.6607 39.9142 45.6607C40.3043 45.6607 40.6795 45.8214 40.9627 46.1097L54.293 60.4428L67.6199 46.107C67.7576 45.9588 67.921 45.8413 68.1009 45.7611C68.2809 45.6809 68.4737 45.6396 68.6685 45.6396C68.8632 45.6396 69.0561 45.6809 69.236 45.7611C69.4159 45.8413 69.5793 45.9588 69.717 46.107C72.2505 48.8381 73.779 52.463 74.0198 56.3117C74.2606 60.1604 73.1974 63.9727 71.0269 67.044H87.9725C88.1675 67.044 88.3605 67.0854 88.5406 67.1657C88.7206 67.246 88.8842 67.3636 89.0219 67.512C89.1596 67.6603 89.2688 67.8364 89.3432 68.0301C89.4175 68.2239 89.4556 68.4315 89.4553 68.6411C89.4558 72.8009 87.9383 76.795 85.229 79.7646C96.7792 78.1075 105.554 70.2845 105.554 60.9065C105.554 55.2682 102.334 49.9296 96.7106 46.2591C96.437 46.0807 96.2245 45.8119 96.1049 45.4928C95.9853 45.1737 95.9651 44.8215 96.0471 44.489C96.7087 41.8073 96.7933 38.9987 96.2944 36.2766C95.7955 33.5544 94.7263 30.9903 93.168 28.7789C91.6096 26.5675 89.6032 24.7669 87.3009 23.514C84.9986 22.261 82.4611 21.5886 79.881 21.5478C79.5982 21.5445 79.3221 21.4542 79.0855 21.2876C78.8488 21.121 78.6615 20.885 78.5457 20.6076C76.4468 15.5796 73.0408 11.3113 68.7379 8.31659C64.435 5.32192 59.4187 3.72864 54.293 3.72864C49.1674 3.72864 44.151 5.32192 39.8481 8.31659C35.5452 11.3113 32.1392 15.5796 30.0404 20.6076C29.9248 20.8843 29.7382 21.1199 29.5024 21.2864C29.2666 21.453 28.9914 21.5436 28.7093 21.5478C26.3116 21.5856 23.9484 22.1685 21.7751 23.2582C19.6017 24.3478 17.6674 25.9196 16.0992 27.8702C15.9718 28.0287 15.8166 28.1586 15.6425 28.2526C15.4684 28.3466 15.2788 28.4027 15.0845 28.4179C14.8902 28.4331 14.695 28.407 14.5101 28.3411C14.3252 28.2752 14.1542 28.1707 14.0068 28.0338C13.8595 27.8968 13.7386 27.7299 13.6512 27.5427C13.5638 27.3555 13.5116 27.1517 13.4974 26.9427C13.4833 26.7338 13.5076 26.524 13.5689 26.3252C13.6302 26.1263 13.7273 25.9425 13.8547 25.784C15.5943 23.6215 17.7178 21.8541 20.1008 20.5854C22.4838 19.3167 25.0783 18.5722 27.7324 18.3956C30.1586 13.042 33.9355 8.52943 38.6321 5.37264C43.3287 2.21586 48.756 0.541992 54.2947 0.541992C59.8335 0.541992 65.2607 2.21586 69.9573 5.37264C74.654 8.52943 78.4308 13.042 80.8571 18.3956C83.7116 18.5843 86.495 19.4308 89.0186 20.8776C91.5421 22.3244 93.7469 24.3378 95.4833 26.7812C97.2196 29.2246 98.4471 32.0409 99.0823 35.0391Z"/>
<path d="M88.5763 40.9255C88.2982 40.6265 88.142 40.221 88.142 39.7982C88.1418 38.4204 87.851 37.0605 87.2914 35.821C86.7318 34.5815 85.918 33.4946 84.9113 32.6421C84.7544 32.5135 84.6229 32.3525 84.5246 32.1686C84.4263 31.9846 84.3632 31.7814 84.3388 31.5709C84.3145 31.3603 84.3295 31.1467 84.3829 30.9424C84.4364 30.7382 84.5272 30.5475 84.6501 30.3815C84.7729 30.2155 84.9254 30.0775 85.0985 29.9757C85.2716 29.8739 85.4618 29.8102 85.6581 29.7884C85.8544 29.7666 86.0527 29.7872 86.2415 29.8489C86.4303 29.9106 86.6057 30.0122 86.7575 30.1478C88.1142 31.2979 89.2105 32.7639 89.964 34.4355C90.7175 36.107 91.1084 37.9406 91.1075 39.7982C91.1075 40.221 90.9513 40.6265 90.6732 40.9255C90.3951 41.2245 90.018 41.3925 89.6247 41.3925C89.2315 41.3925 88.8544 41.2245 88.5763 40.9255Z"/>
</mask>
<path d="M65.8059 17.2906L77.5022 4.95377L77.2913 4.75378L77.0736 4.56113L65.8059 17.2906ZM68.2598 15.9147L85.1656 14.1278L85.1656 14.1272L68.2598 15.9147ZM68.0775 15.3105L53.0284 23.2177L53.0286 23.2182L68.0775 15.3105ZM52.8103 11.2441H35.8103V12.8331L36.1048 14.3946L52.8103 11.2441ZM54.293 12.8384L54.325 -4.16156L54.309 -4.16159H54.293V12.8384ZM54.1096 29.6274C55.9261 31.3496 58.1189 32.7283 60.586 33.6118L72.0499 1.6028C74.1396 2.35121 75.9841 3.51444 77.5022 4.95377L54.1096 29.6274ZM60.586 33.6118C63.0574 34.4969 65.7062 34.8491 68.3566 34.6218L65.4522 0.746119C67.706 0.552879 69.956 0.852868 72.0499 1.6028L60.586 33.6118ZM68.3566 34.6218C71.0059 34.3947 73.5338 33.5995 75.7862 32.3366L59.1581 2.68014C61.0578 1.615 63.1995 0.939263 65.4522 0.746119L68.3566 34.6218ZM84.598 21.0616C85.2215 18.7977 85.4105 16.4449 85.1656 14.1278L51.354 17.7016C51.154 15.8095 51.308 13.8871 51.8185 12.0334L84.598 21.0616ZM85.1656 14.1272C84.9206 11.8106 84.2411 9.52423 83.1264 7.4028L53.0286 23.2182C52.1096 21.4692 51.554 19.5938 51.354 17.7022L85.1656 14.1272ZM83.1266 7.40328C82.011 5.27997 80.4646 3.33421 78.5216 1.72804L56.859 27.9336C55.2313 26.5881 53.9484 24.9686 53.0284 23.2177L83.1266 7.40328ZM40.7962 -1.46066C37.4797 2.1053 35.8103 6.69451 35.8103 11.2441H69.8103C69.8103 14.9481 68.4533 18.7263 65.693 21.6943L40.7962 -1.46066ZM52.8103 11.2441C36.1048 14.3946 36.1052 14.3967 36.1056 14.3988C36.1057 14.3995 36.1061 14.4017 36.1064 14.4031C36.1069 14.4059 36.1074 14.4088 36.108 14.4117C36.1091 14.4175 36.1102 14.4234 36.1113 14.4293C36.1136 14.4413 36.116 14.4535 36.1184 14.4661C36.1233 14.4913 36.1284 14.5179 36.134 14.5458C36.145 14.6016 36.1574 14.6631 36.1712 14.7298C36.1987 14.8623 36.2328 15.0206 36.274 15.1991C36.3525 15.5394 36.4747 16.0327 36.6488 16.6096C36.8103 17.1443 37.0966 18.0206 37.5511 19.0327C37.904 19.8187 38.872 21.88 40.7962 23.9489L65.693 0.793996C67.4781 2.71342 68.3223 4.55902 68.5677 5.10562C68.9147 5.87832 69.1098 6.49152 69.1975 6.78177C69.2978 7.11415 69.3636 7.38172 69.4041 7.55732C69.4263 7.65358 69.4461 7.74476 69.4639 7.83079C69.4729 7.87429 69.4817 7.91773 69.4903 7.96119C69.4946 7.98296 69.4988 8.00486 69.5031 8.0269C69.5052 8.03793 69.5073 8.049 69.5094 8.06012C69.5105 8.06568 69.5116 8.07126 69.5126 8.07685C69.5132 8.07964 69.5137 8.08244 69.5142 8.08525C69.5145 8.08664 69.5149 8.08875 69.515 8.08945C69.5154 8.09156 69.5158 8.09367 52.8103 11.2441ZM40.7962 23.9489C44.1514 27.5565 48.9769 29.8384 54.293 29.8384V-4.16159C58.8227 -4.16159 62.8939 -2.21562 65.693 0.793996L40.7962 23.9489ZM54.2611 29.8384C54.241 29.8383 54.2428 29.8333 54.277 29.8466C54.3127 29.8604 54.4068 29.9037 54.5382 30.02L77.0736 4.56113C70.8357 -0.960528 62.8052 -4.14562 54.325 -4.16156L54.2611 29.8384ZM56.5803 97.3469L31.6838 74.1917L31.6835 74.192L56.5803 97.3469ZM58.6772 97.3469L83.5741 74.192L83.5738 74.1917L58.6772 97.3469ZM99.1652 44.1583L65.7804 37.7197L61.642 59.1772L79.4427 71.8535L99.1652 44.1583ZM99.0823 35.0391L65.8208 42.0866V42.0866L99.0823 35.0391ZM95.4833 26.7812L123.198 7.08601L123.198 7.08594L95.4833 26.7812ZM80.8571 18.3956L49.8889 32.4304L58.2949 50.9785L78.6146 52.3216L80.8571 18.3956ZM69.9573 5.37264L88.924 -22.8456H88.924L69.9573 5.37264ZM38.6321 5.37264L19.6655 -22.8456L19.6655 -22.8456L38.6321 5.37264ZM27.7324 18.3956L29.9896 52.3206L50.2987 50.9693L58.7005 32.4304L27.7324 18.3956ZM20.1008 20.5854L4.12276 -9.42635L4.12274 -9.42634L20.1008 20.5854ZM13.8547 25.784L-12.6379 4.4734L-12.6431 4.47984L13.8547 25.784ZM13.5689 26.3252L46.0594 36.3437L46.0594 36.3435L13.5689 26.3252ZM13.4974 26.9427L-20.4251 29.2359L-20.4251 29.236L13.4974 26.9427ZM14.0068 28.0338L37.1548 3.13051L37.1546 3.13035L14.0068 28.0338ZM14.5101 28.3411L3.09327 60.3669L3.09356 60.367L14.5101 28.3411ZM15.0845 28.4179L12.4354 -5.47871L12.4351 -5.47869L15.0845 28.4179ZM16.0992 27.8702L42.597 49.1743L42.5975 49.1737L16.0992 27.8702ZM28.7093 21.5478L28.2135 -12.4486L28.1932 -12.4483L28.1729 -12.448L28.7093 21.5478ZM29.5024 21.2864L49.1177 49.0576L49.1179 49.0575L29.5024 21.2864ZM30.0404 20.6076L61.4159 33.7063L61.4164 33.705L30.0404 20.6076ZM39.8481 8.31659L20.4261 -19.5901L20.4261 -19.5901L39.8481 8.31659ZM68.7379 8.31659L88.16 -19.5901H88.16L68.7379 8.31659ZM78.5457 20.6076L47.1696 33.705L47.1706 33.7075L78.5457 20.6076ZM79.881 21.5478L80.419 -12.448L80.3453 -12.4492L80.2717 -12.45L79.881 21.5478ZM96.2944 36.2766L129.737 30.1476L129.737 30.1475L96.2944 36.2766ZM96.0471 44.489L129.056 52.637L129.058 52.6324L96.0471 44.489ZM96.7106 46.2591L115.295 17.7875L115.283 17.7802L96.7106 46.2591ZM85.229 79.7646L60.1115 56.8494L-3.78188 126.883L90.0577 113.42L85.229 79.7646ZM89.4553 68.6411L55.4553 68.5866L55.4553 68.6158L55.4553 68.645L89.4553 68.6411ZM88.5406 67.1657L102.387 36.113L102.386 36.1125L88.5406 67.1657ZM71.0269 67.044L43.2609 47.4213L5.36479 101.044H71.0269V67.044ZM74.0198 56.3117L107.953 54.1887L74.0198 56.3117ZM69.717 46.107L94.6429 22.9835L94.6353 22.9753L94.6277 22.9671L69.717 46.107ZM69.236 45.7611L83.0789 14.7067L83.0788 14.7067L69.236 45.7611ZM68.1009 45.7611L54.2581 14.7067L54.258 14.7067L68.1009 45.7611ZM67.6199 46.107L92.5218 69.2564L92.5307 69.2469L67.6199 46.107ZM54.293 60.4428L29.3963 83.5977L54.2986 110.373L79.1949 83.5922L54.293 60.4428ZM40.9627 46.1097L65.8595 22.9548L65.5429 22.6144L65.2171 22.2828L40.9627 46.1097ZM38.8657 46.1097L14.6113 22.2828L14.2692 22.631L13.9373 22.9888L38.8657 46.1097ZM37.5558 67.044V101.044H103.208L65.3241 47.4246L37.5558 67.044ZM19.5617 67.511L-5.3348 44.3558L-5.33518 44.3562L19.5617 67.511ZM19.1274 68.6383L53.1274 68.6441V68.6383H19.1274ZM23.3536 79.7628L18.5288 113.419L112.353 126.869L48.4712 56.8476L23.3536 79.7628ZM11.8746 46.2591L-6.66851 17.7609L-6.6899 17.7748L-6.71127 17.7887L11.8746 46.2591ZM12.481 45.493L-19.3514 33.5472L-19.3514 33.5474L12.481 45.493ZM12.5389 44.489L-20.4756 52.6158L-20.4725 52.6284L-20.4694 52.641L12.5389 44.489ZM11.9712 39.7982H-22.0288L-22.0288 39.7998L11.9712 39.7982ZM11.5369 38.6709L-13.3599 61.8258L-13.3598 61.8259L11.5369 38.6709ZM9.44002 38.6709L34.3367 61.8259L34.3368 61.8258L9.44002 38.6709ZM9.00573 39.7982H-24.9943L-24.9943 39.8065L9.00573 39.7982ZM9.4209 44.1583L29.1434 71.8535L46.9316 59.1861L42.8098 37.7409L9.4209 44.1583ZM28.0976 83.283L42.4265 52.4498L35.612 49.283H28.0976V83.283ZM33.9582 84.5839V50.5839H33.9439L33.9295 50.5839L33.9582 84.5839ZM49.4737 84.5839H83.4737V50.5839H49.4737V84.5839ZM49.4737 115.559H15.4737V115.568L15.4737 115.577L49.4737 115.559ZM49.9082 116.686L25.0114 139.84L25.0115 139.841L49.9082 116.686ZM50.9564 117.153L50.936 151.153L50.9462 151.153H50.9564V117.153ZM56.146 113.962V147.962H90.146V113.962H56.146ZM52.4392 113.962H18.4392V147.962H52.4392V113.962ZM52.0049 81.8596L76.9017 58.7047L76.9016 58.7045L52.0049 81.8596ZM33.9582 81.3926L33.9101 115.393L33.9342 115.393H33.9582V81.3926ZM26.1156 78.1993L49.5089 53.5264L49.5089 53.5264L26.1156 78.1993ZM22.1878 70.2326V36.2326H-16.0807L-11.5758 74.235L22.1878 70.2326ZM40.9483 70.2326L40.9802 36.2326L40.9642 36.2326H40.9483V70.2326ZM41.7724 69.9644L61.5987 97.5854L61.5989 97.5853L41.7724 69.9644ZM42.3188 69.2489L10.5909 57.0284L10.5907 57.0288L42.3188 69.2489ZM41.9964 67.5114L66.8692 44.3307L66.8479 44.3079L66.8266 44.2851L41.9964 67.5114ZM40.9627 66.4063L16.0418 89.5353L16.0871 89.5841L16.1325 89.6326L40.9627 66.4063ZM37.5151 58.1835L3.57293 60.1656L3.57293 60.1657L37.5151 58.1835ZM39.979 49.5616L64.875 26.4058L36.6286 -3.96347L12.3898 29.6912L39.979 49.5616ZM53.2449 63.8245L78.16 40.6892L78.1505 40.679L78.141 40.6688L53.2449 63.8245ZM53.7257 64.1704L67.5716 33.1173L67.5713 33.1172L53.7257 64.1704ZM54.8603 64.1704L41.015 33.1171L41.0142 33.1174L54.8603 64.1704ZM55.3411 63.8245L30.4451 40.6688L30.4358 40.6788L30.4264 40.6889L55.3411 63.8245ZM68.607 49.5616L96.1975 29.6929L71.9592 -3.96539L43.711 26.4059L68.607 49.5616ZM71.0707 58.1835L105.013 60.1657L71.0707 58.1835ZM67.6233 66.4063L92.5294 89.5512L92.5376 89.5425L92.5457 89.5337L67.6233 66.4063ZM66.5897 67.5187L41.6835 44.3738L41.6256 44.4361L41.568 44.4987L66.5897 67.5187ZM66.1889 68.3333L32.7382 62.2461L32.7381 62.2469L66.1889 68.3333ZM66.2746 69.2503L97.9918 57.0021L97.9915 57.0014L66.2746 69.2503ZM66.8182 69.9629L86.6962 42.3791L86.6956 42.3787L66.8182 69.9629ZM67.6377 70.2326L67.5036 104.232L67.5707 104.233H67.6377V70.2326ZM86.3983 70.2326L120.163 74.2282L124.659 36.2326H86.3983V70.2326ZM74.6278 81.3953V115.395H74.6524L74.6769 115.395L74.6278 81.3953ZM57.6288 81.3953V47.3953H57.6182L57.6077 47.3953L57.6288 81.3953ZM56.5806 81.8625L81.477 105.018L81.4774 105.017L56.5806 81.8625ZM56.146 82.9896L22.146 82.9715L22.146 82.9806V82.9896H56.146ZM59.1115 84.5839V50.5839H25.1115V84.5839H59.1115ZM74.6278 84.5839L74.6355 50.5839H74.6278V84.5839ZM80.5139 83.2666L86.0553 49.7212L75.6499 48.0023L66.0983 52.4739L80.5139 83.2666ZM80.6647 83.283L78.8745 117.236L79.769 117.283H80.6647V83.283ZM88.142 39.7982H122.142V39.7942L88.142 39.7982ZM91.1075 39.7982L57.1075 39.7807L57.1075 39.7895V39.7982H91.1075ZM89.964 34.4355L120.961 20.4637L120.961 20.4636L89.964 34.4355ZM86.7575 30.1478L64.1126 55.5093L64.4384 55.8002L64.7715 56.0826L86.7575 30.1478ZM86.2415 29.8489L75.6777 62.1662L75.6784 62.1664L86.2415 29.8489ZM85.6581 29.7884L81.9103 -4.0044L81.9102 -4.00438L85.6581 29.7884ZM84.6501 30.3815L57.3217 10.1538L57.3216 10.154L84.6501 30.3815ZM84.3829 30.9424L117.275 39.5512L117.275 39.55L84.3829 30.9424ZM84.3388 31.5709L118.114 27.6678L118.114 27.6678L84.3388 31.5709ZM84.5246 32.1686L54.5378 48.1933L54.5379 48.1934L84.5246 32.1686ZM84.9113 32.6421L106.883 6.69488L106.675 6.51925L106.465 6.34696L84.9113 32.6421ZM25.1115 98.4742V102.232H93.1115V98.4742H25.1115ZM25.1115 102.232C25.1115 94.4013 27.9818 86.4395 33.7804 80.2046L83.5741 126.514C89.9288 119.682 93.1115 110.909 93.1115 102.232H25.1115ZM33.7804 80.2046C39.6566 73.8864 48.1762 69.8264 57.6288 69.8264V137.826C67.8679 137.826 77.1418 133.431 83.5741 126.514L33.7804 80.2046ZM57.6288 69.8264C67.0815 69.8264 75.6011 73.8865 81.4772 80.2046L31.6835 126.514C38.1157 133.43 47.3896 137.826 57.6288 137.826V69.8264ZM81.4772 80.2046C87.2756 86.4393 90.146 94.4011 90.146 102.232H22.146C22.146 110.909 25.3289 119.682 31.6835 126.514L81.4772 80.2046ZM90.146 102.232V98.4742H22.146V102.232H90.146ZM90.146 98.4742C90.146 106.305 87.2756 114.267 81.4772 120.502L31.6835 74.192C25.3289 81.0247 22.146 89.7975 22.146 98.4742H90.146ZM81.4769 120.502C75.6012 126.82 67.0818 130.88 57.6288 130.88V62.8799C47.3892 62.8799 38.1156 67.2762 31.6838 74.1917L81.4769 120.502ZM57.6288 130.88C48.1758 130.88 39.6565 126.82 33.7807 120.502L83.5738 74.1917C77.1419 67.2761 67.8682 62.8799 57.6288 62.8799V130.88ZM33.7804 120.502C27.9818 114.267 25.1115 106.305 25.1115 98.4742H93.1115C93.1115 89.7977 89.9288 81.0248 83.5741 74.192L33.7804 120.502ZM132.55 50.597C133.99 43.13 133.921 35.4343 132.344 27.9916L65.8208 42.0866C65.5143 40.6403 65.5017 39.1647 65.7804 37.7197L132.55 50.597ZM132.344 27.9916C130.767 20.5472 127.69 13.4078 123.198 7.08601L67.7686 46.4764C66.7489 45.0414 66.1276 43.5346 65.8208 42.0866L132.344 27.9916ZM123.198 7.08594C118.701 0.758075 112.853 -4.64933 105.929 -8.61856L72.1077 50.3737C70.2317 49.2982 68.7928 47.9175 67.7687 46.4764L123.198 7.08594ZM105.929 -8.61856C98.9954 -12.594 91.2061 -14.9945 83.0995 -15.5303L78.6146 52.3216C76.217 52.1631 73.9946 51.4555 72.1077 50.3737L105.929 -8.61856ZM111.825 4.36088C106.899 -6.50967 99.0691 -16.0266 88.924 -22.8456L50.9907 33.5909C50.2388 33.0855 49.9629 32.5937 49.8889 32.4304L111.825 4.36088ZM88.924 -22.8456C78.7494 -29.6843 66.7439 -33.458 54.2947 -33.458V34.542C52.923 34.542 51.7721 34.116 50.9907 33.5909L88.924 -22.8456ZM54.2947 -33.458C41.8455 -33.458 29.8401 -29.6843 19.6655 -22.8456L57.5987 33.5909C56.8174 34.116 55.6664 34.542 54.2947 34.542V-33.458ZM19.6655 -22.8456C9.52041 -16.0266 1.69078 -6.50968 -3.23575 4.36088L58.7005 32.4304C58.6265 32.5937 58.3506 33.0855 57.5987 33.5908L19.6655 -22.8456ZM25.4752 -15.5294C17.9488 -15.0286 10.6857 -12.9204 4.12276 -9.42635L36.0788 50.5971C34.2819 51.5538 32.2079 52.173 29.9896 52.3206L25.4752 -15.5294ZM4.12274 -9.42634C-2.43202 -5.93663 -8.10028 -1.16759 -12.6379 4.47341L40.3474 47.0946C39.2888 48.4105 37.8675 49.6448 36.0788 50.5971L4.12274 -9.42634ZM-12.6431 4.47984C-15.5266 8.06633 -17.624 12.0987 -18.9216 16.3068L46.0594 36.3435C44.8844 40.154 42.9813 43.8186 40.3525 47.0882L-12.6431 4.47984ZM-18.9216 16.3067C-20.2186 20.5131 -20.7184 24.8974 -20.4251 29.2359L47.42 24.6496C47.6851 28.5702 47.2338 32.5348 46.0594 36.3437L-18.9216 16.3067ZM-20.4251 29.236C-20.1318 33.5748 -19.0439 37.8837 -17.1564 41.9265L44.4588 13.1589C46.1716 16.8274 47.1549 20.7285 47.42 24.6495L-20.4251 29.236ZM-17.1564 41.9265C-15.2674 45.9723 -12.5816 49.7391 -9.14097 52.9372L37.1546 3.13035C40.3005 6.05443 42.7447 9.48756 44.4588 13.1589L-17.1564 41.9265ZM-9.14115 52.937C-5.69469 56.1405 -1.55536 58.7098 3.09327 60.3669L25.927 -3.68476C30.2058 -2.15941 34.0031 0.200945 37.1548 3.13051L-9.14115 52.937ZM3.09356 60.367C7.74936 62.0267 12.7357 62.7052 17.7339 62.3145L12.4351 -5.47869C17.0447 -5.83898 21.6407 -5.21273 25.9267 -3.68487L3.09356 60.367ZM17.7336 62.3146C22.7295 61.9241 27.5098 60.4838 31.7924 58.1722L-0.507379 -1.66699C3.42701 -3.79068 7.82808 -5.11864 12.4354 -5.47871L17.7336 62.3146ZM31.7924 58.1722C36.0672 55.8647 39.7097 52.7656 42.597 49.1743L-10.3986 6.56613C-7.76608 3.29176 -4.43398 0.452498 -0.507379 -1.66699L31.7924 58.1722ZM42.5975 49.1737C41.2009 50.9109 39.3327 52.4893 37.0139 53.6519L6.53623 -7.13556C-0.129288 -3.7936 -5.86613 0.928364 -10.3991 6.56675L42.5975 49.1737ZM37.0139 53.6519C34.6848 54.8197 32.0299 55.4996 29.2458 55.5435L28.1729 -12.448C20.5933 -12.3284 13.212 -10.4827 6.53623 -7.13556L37.0139 53.6519ZM29.2051 55.5441C36.5101 55.4376 43.4208 53.0814 49.1177 49.0576L9.88711 -6.48482C15.1124 -10.1755 21.4727 -12.3503 28.2135 -12.4486L29.2051 55.5441ZM49.1179 49.0575C54.7842 45.0552 58.9381 39.6414 61.4159 33.7063L-1.33514 7.50888C0.91156 2.12732 4.69223 -2.81552 9.88686 -6.48463L49.1179 49.0575ZM61.4164 33.705C61.1248 34.4036 60.4961 35.3701 59.2702 36.2233L20.4261 -19.5901C10.5943 -12.7476 3.15365 -3.24441 -1.33567 7.51014L61.4164 33.705ZM59.2702 36.2233C58.0118 37.099 56.2787 37.7286 54.293 37.7286V-30.2714C42.0561 -30.2714 30.2902 -26.4552 20.4261 -19.5901L59.2702 36.2233ZM54.293 37.7286C52.3074 37.7286 50.5742 37.0991 49.3159 36.2233L88.16 -19.5901C78.2958 -26.4552 66.53 -30.2714 54.293 -30.2714V37.7286ZM49.3159 36.2233C48.0899 35.3701 47.4612 34.4036 47.1696 33.705L109.922 7.51012C105.432 -3.24439 97.9917 -12.7476 88.16 -19.5901L49.3159 36.2233ZM47.1706 33.7075C49.6548 39.6571 53.8236 45.0832 59.5117 49.0881L98.6592 -6.51286C103.874 -2.84119 107.668 2.11297 109.921 7.50766L47.1706 33.7075ZM59.5117 49.0881C65.2307 53.1148 72.1663 55.4613 79.4903 55.5455L80.2717 -12.45C87.03 -12.3723 93.4135 -10.2063 98.6592 -6.51286L59.5117 49.0881ZM79.343 55.5435C76.3383 55.4959 73.4939 54.7089 71.0482 53.3778L103.554 -6.3499C96.5033 -10.1868 88.5838 -12.3188 80.419 -12.448L79.343 55.5435ZM71.0482 53.3778C68.6162 52.0543 66.7239 50.2776 65.3753 48.3637L120.961 9.19403C116.495 2.85736 110.59 -2.52041 103.554 -6.3499L71.0482 53.3778ZM65.3753 48.3637C64.032 46.4576 63.2188 44.4102 62.8514 42.4056L129.737 30.1475C128.372 22.6986 125.421 15.523 120.961 9.19403L65.3753 48.3637ZM62.8514 42.4056C62.4843 40.4027 62.5432 38.3465 63.0368 36.3456L129.058 52.6324C130.874 45.2681 131.102 37.5947 129.737 30.1476L62.8514 42.4056ZM63.0379 36.3411C61.3212 43.2957 61.7279 50.649 64.2675 57.4251L127.942 33.5605C130.243 39.6984 130.609 46.3474 129.056 52.637L63.0379 36.3411ZM64.2675 57.4251C66.8138 64.2188 71.5166 70.4201 78.1378 74.7381L115.283 17.7802C121.357 21.7414 125.635 27.4049 127.942 33.5605L64.2675 57.4251ZM78.1266 74.7308C76.2382 73.4982 71.5537 69.0599 71.5537 60.9065H139.554C139.554 41.4766 128.43 26.361 115.295 17.7875L78.1266 74.7308ZM71.5537 60.9065C71.5537 54.3868 74.7006 50.0449 76.7448 48.1706C78.679 46.3971 80.1398 46.1466 80.4004 46.1092L90.0577 113.42C111.111 110.399 139.554 93.6016 139.554 60.9065H71.5537ZM110.347 102.68C118.987 93.2091 123.457 80.9515 123.455 68.6371L55.4553 68.645C55.4548 64.6504 56.8896 60.3809 60.1115 56.8494L110.347 102.68ZM123.455 68.6955C123.462 64.3447 122.674 59.9853 121.085 55.8465L57.6011 80.2137C56.1612 76.4624 55.449 72.5182 55.4553 68.5866L123.455 68.6955ZM121.085 55.8465C119.496 51.7052 117.105 47.7887 113.938 44.3782L64.1055 90.6457C61.2145 87.532 59.0419 83.9675 57.6011 80.2137L121.085 55.8465ZM113.938 44.3782C110.767 40.9626 106.866 38.11 102.387 36.113L74.6938 98.2183C70.5754 96.3819 67.0013 93.7647 64.1055 90.6457L113.938 44.3782ZM102.386 36.1125C97.9012 34.1128 92.9954 33.044 87.9725 33.044V101.044C83.3396 101.044 78.8197 100.058 74.6949 98.2188L102.386 36.1125ZM87.9725 33.044H71.0269V101.044H87.9725V33.044ZM98.7929 86.6667C105.561 77.0903 108.665 65.5643 107.953 54.1887L40.0861 58.4347C39.856 54.7565 40.8342 50.8552 43.2609 47.4213L98.7929 86.6667ZM107.953 54.1887C107.241 42.8088 102.712 31.6815 94.6429 22.9835L44.791 69.2305C41.7891 65.9946 40.3165 62.1171 40.0861 58.4347L107.953 54.1887ZM94.6277 22.9671C91.4571 19.5539 87.5568 16.7028 83.0789 14.7067L55.3931 76.8155C51.275 74.9798 47.7016 72.3638 44.8063 69.2469L94.6277 22.9671ZM83.0788 14.7067C78.5938 12.7074 73.6891 11.6396 68.6685 11.6396V79.6396C64.0374 79.6396 59.5183 78.6544 55.3931 76.8155L83.0788 14.7067ZM68.6685 11.6396C63.6479 11.6396 58.7431 12.7074 54.2581 14.7067L81.9438 76.8155C77.8186 78.6544 73.2995 79.6396 68.6685 79.6396V11.6396ZM54.258 14.7067C49.7802 16.7028 45.8798 19.5539 42.7092 22.9671L92.5307 69.2469C89.6354 72.3638 86.0619 74.9798 81.9439 76.8155L54.258 14.7067ZM42.7181 22.9576L29.3911 37.2934L79.1949 83.5922L92.5218 69.2564L42.7181 22.9576ZM79.1898 37.2878L65.8595 22.9548L16.066 69.2647L29.3963 83.5977L79.1898 37.2878ZM65.2171 22.2828C58.8005 15.751 49.7899 11.6607 39.9142 11.6607V79.6607C30.8186 79.6607 22.5585 75.8918 16.7083 69.9367L65.2171 22.2828ZM39.9142 11.6607C30.0384 11.6607 21.0279 15.7511 14.6113 22.2828L63.1201 69.9367C57.27 75.8917 49.0099 79.6607 39.9142 79.6607V11.6607ZM13.9373 22.9888C5.87058 31.6862 1.34232 42.8118 0.630372 54.1898L68.4976 58.4364C68.2673 62.1182 66.795 65.9951 63.7941 69.2306L13.9373 22.9888ZM0.630372 54.1898C-0.0813082 65.5635 3.02188 77.0878 9.7875 86.6635L65.3241 47.4246C67.75 50.8581 68.7278 54.7588 68.4976 58.4364L0.630372 54.1898ZM37.5558 33.044H20.6101V101.044H37.5558V33.044ZM20.6101 33.044C10.3705 33.044 1.09697 37.4403 -5.3348 44.3558L44.4581 90.6663C38.5825 96.9837 30.0632 101.044 20.6101 101.044V33.044ZM-5.33518 44.3562C-11.6898 51.1888 -14.8726 59.9616 -14.8726 68.6383H53.1274C53.1274 76.4694 50.257 84.4312 44.4585 90.6658L-5.33518 44.3562ZM-14.8726 68.6326C-14.8747 80.9479 -10.4049 93.2065 -1.76395 102.678L48.4712 56.8476C51.6933 60.3793 53.1281 64.6492 53.1274 68.6441L-14.8726 68.6326ZM28.1785 46.1069C28.444 46.1449 29.9068 46.3969 31.8414 48.1709C33.8858 50.0455 37.0324 54.3872 37.0324 60.9065H-30.9676C-30.9676 93.5992 -2.52737 110.4 18.5288 113.419L28.1785 46.1069ZM37.0324 60.9065C37.0324 69.0591 32.3486 73.497 30.4605 74.7296L-6.71127 17.7887C-19.8445 26.3623 -30.9676 41.4773 -30.9676 60.9065H37.0324ZM30.4178 74.7574C37.0505 70.4417 41.7621 64.2371 44.3133 57.4387L-19.3514 33.5474C-17.0397 27.3872 -12.7536 21.7203 -6.66851 17.7609L30.4178 74.7574ZM44.3133 57.4389C46.858 50.6578 47.2662 43.2977 45.5472 36.3371L-20.4694 52.641C-22.0241 46.3456 -21.6566 39.69 -19.3514 33.5472L44.3133 57.4389ZM45.5534 36.3623C45.834 37.5023 45.9712 38.6541 45.9712 39.7966L-22.0288 39.7998C-22.0286 44.1091 -21.5098 48.4143 -20.4756 52.6158L45.5534 36.3623ZM45.9712 39.7982C45.9712 31.1216 42.7885 22.3487 36.4336 15.5159L-13.3598 61.8259C-19.1585 55.591 -22.0288 47.6291 -22.0288 39.7982H45.9712ZM36.4337 15.516C30.0014 8.59971 20.7274 4.20392 10.4885 4.20392V72.2039C1.03601 72.2039 -7.48364 68.1441 -13.3599 61.8258L36.4337 15.516ZM10.4885 4.20392C0.249565 4.20392 -9.02439 8.59968 -15.4568 15.516L34.3368 61.8258C28.4606 68.1441 19.9409 72.2039 10.4885 72.2039V4.20392ZM-15.4567 15.5159C-21.8116 22.3488 -24.9943 31.1217 -24.9943 39.7982H43.0057C43.0057 47.629 40.1355 55.5909 34.3367 61.8259L-15.4567 15.5159ZM-24.9943 39.8065C-24.9934 43.4161 -24.6508 47.0231 -23.968 50.5757L42.8098 37.7409C42.9412 38.4246 43.0056 39.1098 43.0057 39.7899L-24.9943 39.8065ZM-10.3016 16.4632C-23.7643 26.0503 -33.9331 41.7826 -33.9331 60.9065H34.0669C34.0669 67.1213 30.6882 70.7534 29.1434 71.8535L-10.3016 16.4632ZM-33.9331 60.9065C-33.9331 98.5962 1.11404 117.283 27.9213 117.283V49.283C27.4825 49.283 28.1532 49.111 29.5278 50.2152C30.956 51.3625 34.0669 54.9223 34.0669 60.9065H-33.9331ZM27.9213 117.283H28.0976V49.283H27.9213V117.283ZM13.7687 114.116C20.0598 117.04 26.9495 118.59 33.9869 118.584L33.9295 50.5839C36.9355 50.5814 39.8359 51.2459 42.4265 52.4498L13.7687 114.116ZM33.9582 118.584H49.4737V50.5839H33.9582V118.584ZM15.4737 84.5839V115.559H83.4737V84.5839H15.4737ZM15.4737 115.577C15.4783 124.247 18.6611 133.012 25.0114 139.84L74.8051 93.5307C80.5993 99.7609 83.4695 107.716 83.4737 115.54L15.4737 115.577ZM25.0115 139.841C31.4387 146.751 40.7038 151.147 50.936 151.153L50.9769 83.1528C60.4227 83.1585 68.9338 87.2178 74.8049 93.5306L25.0115 139.841ZM50.9564 151.153H57.6288V83.1528H50.9564V151.153ZM57.6288 151.153C67.8674 151.153 77.1415 146.757 83.5741 139.841L33.7804 93.531C39.6569 87.2125 48.1766 83.1528 57.6288 83.1528V151.153ZM83.5741 139.841C89.9289 133.008 93.1115 124.235 93.1115 115.559H25.1115C25.1115 107.728 27.9817 99.766 33.7804 93.531L83.5741 139.841ZM93.1115 115.559V111.801H25.1115V115.559H93.1115ZM93.1115 111.801C93.1115 103.124 89.9287 94.3511 83.5741 87.5184L33.7804 133.828C27.9819 127.593 25.1115 119.632 25.1115 111.801H93.1115ZM83.5741 87.5184C77.1418 80.6022 67.8679 76.2063 57.6288 76.2063V144.206C48.1762 144.206 39.6566 140.146 33.7804 133.828L83.5741 87.5184ZM57.6288 76.2063C47.3896 76.2063 38.1157 80.6023 31.6835 87.5184L81.4772 133.828C75.6011 140.146 67.0815 144.206 57.6288 144.206V76.2063ZM31.6835 87.5184C25.329 94.351 22.146 103.124 22.146 111.801H90.146C90.146 119.632 87.2755 127.594 81.4772 133.828L31.6835 87.5184ZM22.146 111.801V113.962H90.146V111.801H22.146ZM56.146 79.9615H52.4392V147.962H56.146V79.9615ZM86.4392 113.962V82.9869H18.4392V113.962H86.4392ZM86.4392 82.9869C86.4392 74.3104 83.2565 65.5376 76.9017 58.7047L27.108 105.014C21.3094 98.7795 18.4392 90.8176 18.4392 82.9869H86.4392ZM76.9016 58.7045C70.4694 51.7885 61.1956 47.3926 50.9564 47.3926V115.393C41.5037 115.393 32.9842 111.333 27.1082 105.015L76.9016 58.7045ZM50.9564 47.3926H33.9582V115.393H50.9564V47.3926ZM34.0064 47.3926C40.1235 47.4013 45.6054 49.8254 49.5089 53.5264L2.7223 102.872C10.9585 110.681 22.0164 115.376 33.9101 115.393L34.0064 47.3926ZM49.5089 53.5264C53.3491 57.1674 55.421 61.7564 55.9514 66.2303L-11.5758 74.235C-10.3151 84.8701 -5.45055 95.1233 2.72234 102.872L49.5089 53.5264ZM22.1878 104.233H40.9483V36.2326H22.1878V104.233ZM40.9165 104.233C48.5133 104.24 55.7145 101.809 61.5987 97.5854L21.9462 42.3434C27.3424 38.4701 33.97 36.2261 40.9802 36.2326L40.9165 104.233ZM61.5989 97.5853C67.4478 93.3869 71.653 87.6843 74.0468 81.469L10.5907 57.0288C12.7601 51.3963 16.5849 46.1918 21.9459 42.3436L61.5989 97.5853ZM74.0467 81.4694C76.4358 75.2664 77.0274 68.5661 75.8324 62.1254L8.97336 74.5297C7.89319 68.7076 8.42616 62.6486 10.5909 57.0284L74.0467 81.4694ZM75.8324 62.1254C74.6365 55.6793 71.6366 49.4461 66.8692 44.3307L17.1236 90.6921C12.7715 86.0222 10.0545 80.3571 8.97336 74.5297L75.8324 62.1254ZM66.8266 44.2851L65.7929 43.18L16.1325 89.6326L17.1662 90.7377L66.8266 44.2851ZM65.8836 43.2774C69.4161 47.0835 71.1956 51.7208 71.4573 56.2013L3.57293 60.1657C4.19672 70.8473 8.4276 81.3312 16.0418 89.5353L65.8836 43.2774ZM71.4573 56.2014C71.7187 60.6779 70.4917 65.373 67.5683 69.432L12.3898 29.6912C5.92831 38.6627 2.94939 49.4881 3.57293 60.1656L71.4573 56.2014ZM15.083 72.7173L28.3489 86.9803L78.141 40.6688L64.875 26.4058L15.083 72.7173ZM28.3299 86.9598C31.5008 90.3746 35.4018 93.2268 39.8801 95.2235L67.5713 33.1172C71.69 34.9536 75.2642 37.5707 78.16 40.6892L28.3299 86.9598ZM39.8798 95.2234C44.3663 97.2238 49.2721 98.2918 54.293 98.2918V30.2918C58.9246 30.2918 63.4448 31.2773 67.5716 33.1173L39.8798 95.2234ZM54.293 98.2918C59.3138 98.2918 64.2198 97.2239 68.7065 95.2233L41.0142 33.1174C45.1413 31.2772 49.6616 30.2918 54.293 30.2918V98.2918ZM68.7057 95.2236C73.1845 93.2267 77.0853 90.3745 80.2558 86.9601L30.4264 40.6889C33.3218 37.5708 36.8959 34.9536 41.015 33.1171L68.7057 95.2236ZM80.2371 86.9802L93.5031 72.7173L43.711 26.4059L30.4451 40.6688L80.2371 86.9802ZM41.0165 69.4303C38.0939 65.3717 36.8671 60.6773 37.1285 56.2013L105.013 60.1657C105.636 49.4888 102.658 38.6641 96.1975 29.6929L41.0165 69.4303ZM37.1285 56.2013C37.3901 51.7214 39.1693 47.0848 42.701 43.2789L92.5457 89.5337C100.159 81.3297 104.389 70.8465 105.013 60.1657L37.1285 56.2013ZM42.7172 43.2614L41.6835 44.3738L91.4958 90.6636L92.5294 89.5512L42.7172 43.2614ZM41.568 44.4987C36.8605 49.6156 33.9062 55.8279 32.7382 62.2461L99.6395 74.4205C98.5837 80.2226 95.9081 85.8681 91.6113 90.5386L41.568 44.4987ZM32.7381 62.2469C31.5711 68.6606 32.1739 75.3269 34.5576 81.4992L97.9915 57.0014C100.151 62.5939 100.695 68.6222 99.6396 74.4197L32.7381 62.2469ZM34.5574 81.4985C36.9458 87.6834 41.1285 93.3587 46.9407 97.5471L86.6956 42.3787C92.0228 46.2175 95.8273 51.397 97.9918 57.0021L34.5574 81.4985ZM46.9402 97.5466C52.7874 101.76 59.9437 104.203 67.5036 104.232L67.7719 36.2329C74.7479 36.2604 81.3339 38.5148 86.6962 42.3791L46.9402 97.5466ZM67.6377 104.233H86.3983V36.2326H67.6377V104.233ZM52.6339 66.2371C53.1634 61.7626 55.2348 57.1728 59.0749 53.5309L105.867 102.871C114.04 95.1202 118.904 84.8649 120.163 74.2282L52.6339 66.2371ZM59.0749 53.5309C62.9783 49.8291 68.4607 47.4042 74.5787 47.3954L74.6769 115.395C86.5723 115.378 97.6313 110.682 105.867 102.871L59.0749 53.5309ZM74.6278 47.3953H57.6288V115.395H74.6278V47.3953ZM57.6077 47.3953C47.3766 47.4017 38.1114 51.7965 31.6837 58.7077L81.4774 105.017C75.6058 111.331 67.0946 115.389 57.6499 115.395L57.6077 47.3953ZM31.6842 58.7072C25.3332 65.5358 22.1507 74.3015 22.146 82.9715L90.146 83.0077C90.1419 90.8322 87.2719 98.7872 81.477 105.018L31.6842 58.7072ZM22.146 82.9896V88.9085H90.146V82.9896H22.146ZM22.146 88.9085C22.146 97.5852 25.3289 106.358 31.6835 113.191L81.4772 66.881C87.2756 73.1157 90.146 81.0774 90.146 88.9085H22.146ZM31.6835 113.191C38.1157 120.107 47.3896 124.503 57.6288 124.503V56.5028C67.0815 56.5028 75.6011 60.5628 81.4772 66.881L31.6835 113.191ZM57.6288 124.503C67.8679 124.503 77.1418 120.107 83.5741 113.191L33.7804 66.881C39.6566 60.5627 48.1762 56.5028 57.6288 56.5028V124.503ZM83.5741 113.191C89.9288 106.358 93.1115 97.585 93.1115 88.9085H25.1115C25.1115 81.0776 27.9818 73.1158 33.7804 66.881L83.5741 113.191ZM93.1115 88.9085V84.5839H25.1115V88.9085H93.1115ZM59.1115 118.584H74.6278V50.5839H59.1115V118.584ZM74.6201 118.584C81.6936 118.585 88.6157 117.015 94.9295 114.059L66.0983 52.4739C68.6982 51.2567 71.6129 50.5832 74.6355 50.5839L74.6201 118.584ZM74.9725 116.812C76.2626 117.025 77.5653 117.167 78.8745 117.236L82.455 49.3301C83.6632 49.3938 84.8651 49.5246 86.0553 49.7212L74.9725 116.812ZM80.6647 117.283C107.472 117.283 142.519 98.5962 142.519 60.9065H74.5192C74.5192 54.9223 77.6301 51.3625 79.0582 50.2152C80.4329 49.111 81.1035 49.283 80.6647 49.283V117.283ZM142.519 60.9065C142.519 41.7826 132.35 26.0503 118.888 16.4632L79.4427 71.8535C77.8978 70.7534 74.5192 67.1213 74.5192 60.9065H142.519ZM54.142 39.7982C54.142 48.4747 57.3247 57.2476 63.6796 64.0805L113.473 17.7705C119.272 24.0054 122.142 31.9673 122.142 39.7982H54.142ZM63.6796 64.0805C70.1118 70.9966 79.3857 75.3925 89.6247 75.3925V7.39248C99.0773 7.39248 107.597 11.4524 113.473 17.7705L63.6796 64.0805ZM89.6247 75.3925C99.8638 75.3925 109.138 70.9966 115.57 64.0805L65.7765 17.7705C71.6526 11.4524 80.1722 7.39248 89.6247 7.39248V75.3925ZM115.57 64.0805C121.925 57.2473 125.107 48.4743 125.107 39.7982H57.1075C57.1075 31.9678 59.9775 24.0057 65.7765 17.7705L115.57 64.0805ZM125.107 39.8157C125.111 33.1999 123.723 26.5915 120.961 20.4637L58.9674 48.4073C57.7122 45.6226 57.106 42.6814 57.1075 39.7807L125.107 39.8157ZM120.961 20.4636C118.196 14.331 114.077 8.73395 108.744 4.21295L64.7715 56.0826C62.1518 53.8618 60.2248 51.1967 58.9674 48.4073L120.961 20.4636ZM109.402 4.78625C105.836 1.60179 101.57 -0.911052 96.8046 -2.46858L75.6784 62.1664C71.2908 60.7323 67.3755 58.4227 64.1126 55.5093L109.402 4.78625ZM96.8053 -2.46836C92.0329 -4.02836 86.9559 -4.56398 81.9103 -4.0044L89.4059 63.5812C84.7529 64.0973 80.0726 63.6028 75.6777 62.1662L96.8053 -2.46836ZM81.9102 -4.00438C76.8674 -3.44509 72.0891 -1.81843 67.8571 0.67155L102.34 59.2798C98.4541 61.5661 94.0563 63.0655 89.4061 63.5812L81.9102 -4.00438ZM67.8571 0.67155C63.6325 3.1571 60.0835 6.42256 57.3217 10.1538L111.978 50.6092C109.462 54.0084 106.218 56.998 102.34 59.2798L67.8571 0.67155ZM57.3216 10.154C54.5628 13.8812 52.6163 18.033 51.4905 22.3349L117.275 39.55C116.256 43.4435 114.492 47.2138 111.979 50.609L57.3216 10.154ZM51.4908 22.3337C50.3651 26.6351 50.0572 31.092 50.5636 35.474L118.114 27.6678C118.572 31.6286 118.294 35.6583 117.275 39.5512L51.4908 22.3337ZM50.5636 35.4739C51.0701 39.8567 52.3935 44.1805 54.5378 48.1933L114.511 16.1438C116.459 19.7887 117.656 23.7061 118.114 27.6678L50.5636 35.4739ZM54.5379 48.1934C56.6839 52.2092 59.6438 55.8932 63.3576 58.9373L106.465 6.34696C109.865 9.13383 112.562 12.4958 114.511 16.1437L54.5379 48.1934ZM62.94 58.5894C59.9686 56.0734 57.7568 53.0312 56.3031 49.8111L118.28 21.8309C115.707 16.1318 111.867 10.9159 106.883 6.69488L62.94 58.5894ZM56.3031 49.8111C54.8515 46.5959 54.1424 43.182 54.142 39.8022L122.142 39.7942C122.141 33.6588 120.851 27.5252 118.28 21.8309L56.3031 49.8111Z" fill="#6E25A9" mask="url(#path-1-inside-1)"/>
<path d="M57.689 118.182V88.7109" stroke="#6E25A9" stroke-width="3"/>
<path d="M11.1804 47.2516C10.3513 42.2564 11.0809 30.9674 20.6327 25.7725" stroke="#6E25A9" stroke-width="3"/>
</svg>
