<svg width="72" height="72" viewBox="0 0 72 72" fill="none" xmlns="http://www.w3.org/2000/svg">
<path d="M67.7796 0C53.3848 0 36 10.3359 36 23.1712C36 26.1576 37.1289 28.8712 39.2452 31.2849C37.0986 36.7906 36.0314 43.1258 36 50.3949C35.4236 48.8765 34.748 47.4304 34.0157 46.0246C35.3098 44.0335 36 41.8674 36 39.5349C36 26.6996 18.6152 16.3637 4.22043 16.3637C1.89368 16.3637 0 18.2572 0 20.584C0 34.9788 10.3359 52.3636 23.1727 52.3636C26.3498 52.3636 29.2288 51.117 31.7543 48.7217C34.6166 54.7626 36 61.8913 36 70.3636C36 71.2681 36.7319 72 37.6364 72C38.5409 72 39.2728 71.2681 39.2728 70.3636V50.7272C39.2728 44.2365 40.1152 38.6097 41.8268 33.6936C43.9535 35.2171 46.297 35.9999 48.8273 35.9999C61.6641 35.9999 72 18.6151 72 4.22029C71.9998 1.89368 70.1063 0 67.7796 0ZM32.0838 42.6978C27.617 35.862 21.0258 30.4784 12.1465 26.3353C11.3283 25.9581 10.3551 26.3112 9.97158 27.1263C9.58959 27.9444 9.94274 28.9193 10.7626 29.3012C19.6552 33.4512 26.0246 38.7835 30.1462 45.6857C30.0128 45.8324 29.9117 45.9873 29.7678 46.1314C27.8038 48.0953 25.5842 49.0909 23.1727 49.0909C12.4548 49.0909 3.27267 33.4161 3.27267 20.584C3.27267 20.0615 3.69777 19.6364 4.22028 19.6364C17.0523 19.6364 32.7272 28.8185 32.7272 39.5348C32.7272 40.633 32.4937 41.6854 32.0838 42.6978ZM48.8271 32.7272C46.7593 32.7272 44.8439 31.9504 43.0985 30.5036C46.5864 22.9134 52.5298 17.2245 61.2677 12.923C62.0795 12.5236 62.4118 11.5424 62.014 10.7322C61.6113 9.92205 60.6301 9.58961 59.8232 9.98587C50.915 14.3721 44.6291 20.2532 40.7543 27.9226C39.7893 26.4453 39.2727 24.859 39.2727 23.1711C39.2727 12.4548 54.9475 3.27268 67.7796 3.27268C68.3021 3.27268 68.7272 3.69778 68.7272 4.22029C68.7272 17.0524 59.545 32.7272 48.8271 32.7272Z" fill="black"/>
</svg>
