<svg width="83" height="85" viewBox="0 0 83 85" fill="none" xmlns="http://www.w3.org/2000/svg">
<path d="M60.0224 5.30475C59.361 4.96262 58.5486 5.08516 58.0215 5.62302C57.4944 6.15746 57.3668 6.97602 57.706 7.64999C60.4723 13.1252 61.8755 18.9934 61.8755 25.0915C61.8755 46.233 44.9122 63.4328 24.0615 63.4328C18.0457 63.4328 12.2581 62.01 6.8566 59.2052C6.19529 58.858 5.38621 58.9856 4.85913 59.5234C4.33205 60.0579 4.20442 60.8764 4.54362 61.5504C11.6506 75.6119 25.7166 84.3462 41.2497 84.3462C63.9972 84.3462 82.5012 65.5823 82.5012 42.5194C82.5012 26.7696 73.887 12.5091 60.0224 5.30475ZM41.2497 80.8607C28.7715 80.8607 17.324 74.7098 10.3009 64.5101C14.7121 66.11 19.3213 66.9185 24.0615 66.9185C46.809 66.9185 65.313 48.1545 65.313 25.0916C65.313 20.2871 64.5173 15.6152 62.9396 11.1409C72.9974 18.2634 79.0636 29.8672 79.0636 42.5194C79.0636 63.6609 62.1004 80.8607 41.2497 80.8607Z" fill="black"/>
<path d="M18.9067 18.1199C25.5403 18.1199 30.9385 23.5932 30.9385 30.3192C30.9385 31.2825 31.7073 32.062 32.6573 32.062C33.6074 32.062 34.3762 31.2825 34.3762 30.3192C34.3762 23.5932 39.7743 18.1199 46.4079 18.1199C47.358 18.1199 48.1268 17.3404 48.1268 16.3771C48.1268 15.4138 47.3578 14.6343 46.4078 14.6343C39.7742 14.6343 34.376 9.16099 34.376 2.43502C34.376 1.47188 33.6074 0.692383 32.6573 0.692383C31.7073 0.692383 30.9385 1.47188 30.9385 2.43519C30.9385 9.16116 25.5403 14.6345 18.9067 14.6345C17.9567 14.6345 17.1879 15.414 17.1879 16.3773C17.1879 17.3406 17.9568 18.1199 18.9067 18.1199ZM32.6573 9.61716C34.1345 12.5103 36.471 14.8812 39.3244 16.3771C36.471 17.873 34.1345 20.2439 32.6573 23.1371C31.1802 20.2439 28.8437 17.873 25.9902 16.3771C28.8437 14.8812 31.1802 12.5103 32.6573 9.61716Z" fill="black"/>
<path d="M10.3128 51.2328C10.3128 52.1961 11.0816 52.9756 12.0317 52.9756C12.9818 52.9756 13.7505 52.1961 13.7505 51.2328C13.7505 46.4283 17.6045 42.5189 22.3446 42.5189C23.2946 42.5189 24.0634 41.7394 24.0634 40.7761C24.0634 39.8128 23.2946 39.0333 22.3446 39.0333C17.6043 39.0333 13.7505 35.124 13.7505 30.3195C13.7505 29.3562 12.9818 28.5767 12.0317 28.5767C11.0816 28.5767 10.3128 29.3562 10.3128 30.3195C10.3128 35.124 6.45886 39.0333 1.7188 39.0333C0.768731 39.0335 -6.10352e-05 39.813 -6.10352e-05 40.7761C-6.10352e-05 41.7394 0.768731 42.5189 1.7188 42.5189C6.45886 42.5189 10.3128 46.4283 10.3128 51.2328ZM12.0317 36.5979C13.0489 38.3066 14.4655 39.7465 16.1541 40.7761C14.4655 41.8058 13.0488 43.2457 12.0317 44.9544C11.0144 43.2457 9.59784 41.8058 7.90927 40.7761C9.59784 39.7465 11.0144 38.3067 12.0317 36.5979Z" fill="black"/>
</svg>
