<svg width="76" height="82" viewBox="0 0 76 82" fill="none" xmlns="http://www.w3.org/2000/svg">
<path d="M31.2728 49.852H26.5819V45.124C26.5819 44.2536 25.8817 43.5479 25.0182 43.5479C24.1547 43.5479 23.4546 44.2536 23.4546 45.124V49.852H18.7638C17.9003 49.852 17.2001 50.5577 17.2001 51.4279C17.2001 52.2981 17.9003 53.004 18.7638 53.004H23.4546V57.732C23.4546 58.6023 24.1549 59.3081 25.0182 59.3081C25.8815 59.3081 26.5819 58.6023 26.5819 57.732V53.004H31.2728C32.1363 53.004 32.8365 52.2982 32.8365 51.4279C32.8365 50.5576 32.1364 49.852 31.2728 49.852Z" fill="black"/>
<path d="M73.4756 51.2706C70.019 45.2366 62.3762 43.1715 56.3882 46.6561L50.0367 50.3519V36.6663C50.0367 34.9744 49.4816 33.2955 48.4731 31.9385L40.655 21.4325V16.9588C42.4749 16.3082 43.7823 14.5566 43.7823 12.5019V5.25268C43.782 2.64577 41.6777 0.524902 39.0911 0.524902H10.9456C8.35902 0.524902 6.25457 2.64577 6.25457 5.25268V12.5021C6.25457 14.5565 7.562 16.3084 9.38185 16.959V21.4327L1.56309 31.9393C0.555121 33.2956 0 34.9744 0 36.6663V67.1877C0 71.5327 3.50727 75.0674 7.81813 75.0674H32.9474C36.4534 80.9906 44.0134 82.9729 49.9394 79.5242L68.8974 68.4925C74.8325 65.0381 76.9496 57.3375 73.4756 51.2706ZM9.38185 5.25268C9.38185 4.38366 10.0833 3.67665 10.9454 3.67665H39.091C39.9532 3.67665 40.6547 4.38366 40.6547 5.25268V12.5021C40.6547 13.3711 39.9532 14.078 39.091 14.078H10.9456C10.0833 14.078 9.38201 13.371 9.38201 12.5021L9.38185 5.25268ZM4.06567 33.8294L12.1964 22.9034C12.3994 22.6308 12.5091 22.2989 12.5091 21.9578V17.23H37.5274V20.3819C37.5274 21.1709 37.5274 21.0875 37.5274 21.9578C37.6542 22.8257 37.5274 22.6681 38.0451 23.2197L38.3093 23.534L45.9704 33.829C46.4711 34.5027 46.7821 35.3088 46.8761 36.1416H3.16059C3.25441 35.3087 3.56544 34.5026 4.06567 33.8294ZM7.81829 71.9155C5.23174 71.9155 3.12744 69.7946 3.12744 67.1877V65.5961H31.5363C31.0405 67.6394 31.0438 69.8219 31.6115 71.9156L7.81829 71.9155ZM32.7628 62.4598H3.12728V39.2932H46.9093V52.1714L37.4301 57.6879C35.4538 58.8385 33.8563 60.4765 32.7628 62.4598ZM48.376 76.7945C43.8886 79.4062 38.1545 77.8617 35.5615 73.3358C32.9562 68.7663 34.5351 63.0131 38.9942 60.4172L47.4816 55.4783L56.8634 71.8556L48.376 76.7945ZM67.3336 65.763L59.5718 70.2797L50.1898 53.9021L57.9518 49.3858C62.4422 46.7731 68.1743 48.3202 70.7673 52.8463C73.3716 57.395 71.7879 63.1706 67.3336 65.763Z" fill="black"/>
</svg>
