<svg width="80" height="84" viewBox="0 0 80 84" fill="none" xmlns="http://www.w3.org/2000/svg">
<path d="M29.0472 18.1144C29.0472 27.9021 36.6715 35.8657 46.0428 35.8657C55.4141 35.8657 63.0383 27.9021 63.0383 18.1144C63.0383 8.32672 55.4141 0.36377 46.0428 0.36377C36.6715 0.36377 29.0472 8.32672 29.0472 18.1144ZM59.9486 18.1144C59.9486 26.1228 53.7105 32.638 46.0428 32.638C38.3751 32.638 32.137 26.1228 32.137 18.1144C32.137 10.1067 38.3751 3.59145 46.0428 3.59145C53.7105 3.59145 59.9486 10.1067 59.9486 18.1144Z" fill="black"/>
<path d="M17.7965 82.5311C18.3954 83.1616 19.3704 83.1686 19.9771 82.5444L27.4679 74.8368C28.7405 73.5076 29.1275 71.5397 28.5678 69.8291L30.1791 68.2061C31.0467 67.3309 32.1889 66.8486 33.3963 66.8486H53.9362C57.5802 66.8486 61.0243 65.387 63.6353 62.7331C63.7428 62.624 62.8197 63.7596 77.648 45.2498C79.8473 42.5322 79.5182 38.4514 76.9139 36.1518C74.3258 33.8737 70.4488 34.201 68.2434 36.8719L59.1263 46.659C57.975 45.1791 56.2194 44.2567 54.3226 44.2567H37.0934C34.6417 43.1854 32.0404 42.6432 29.3563 42.6432C21.9162 42.6432 15.4197 46.2321 11.9333 52.9611C10.4645 52.6705 8.91539 53.1345 7.80094 54.2985L0.450819 61.9979C-0.149265 62.6265 -0.150473 63.6436 0.448404 64.2741L17.7965 82.5311ZM29.3557 45.8702C31.7222 45.8702 34.0103 46.3677 36.1576 47.3488C36.3532 47.4383 36.5639 47.4844 36.777 47.4844H54.3226C55.9978 47.4844 57.4129 48.9113 57.4129 50.7114C57.4129 52.4914 56.0268 53.9391 54.3226 53.9391H41.7166C40.8635 53.9391 40.1717 54.6617 40.1717 55.5526C40.1717 56.4442 40.8635 57.1662 41.7166 57.1662H54.3226C57.7305 57.1662 60.5027 54.2708 60.5027 50.7114C60.5027 50.4277 60.4834 50.1465 60.4484 49.8678C69.2679 40.3991 70.5116 39.0687 70.5647 39.0025C71.6658 37.6449 73.6206 37.4728 74.921 38.6179C76.2226 39.7673 76.3874 41.8077 75.2832 43.1728L61.4252 60.4758C59.4015 62.5049 56.7446 63.6215 53.9362 63.6215H33.3963C31.3835 63.6215 29.4782 64.4254 28.033 65.8839L26.7199 67.2073L14.6156 54.5658C17.4445 49.0229 22.7529 45.8702 29.3557 45.8702ZM9.98757 56.5791C10.4971 56.047 11.2795 55.9511 11.9007 56.3521C12.1682 56.5224 11.4002 55.7922 25.2831 70.2717C25.9007 70.9168 25.8675 71.9445 25.2915 72.546L18.9055 79.1168L3.72411 63.1398L9.98757 56.5791Z" fill="black"/>
<path d="M44.1886 8.43251V10.3235C42.3902 10.9893 41.0983 12.7831 41.0983 14.8872C41.0983 17.5562 43.1774 19.7284 45.7335 19.7284C46.5854 19.7284 47.2784 20.4523 47.2784 21.3419C47.2784 22.2316 46.5854 22.9554 45.7335 22.9554C45.0737 22.9554 44.3607 22.5223 43.7274 21.7347C43.178 21.0525 42.2037 20.9649 41.5505 21.538C40.8972 22.1118 40.8127 23.1295 41.3621 23.8117C42.188 24.8376 43.1593 25.5526 44.1886 25.9132V27.7966C44.1886 28.6882 44.8805 29.4102 45.7335 29.4102C46.5866 29.4102 47.2784 28.6882 47.2784 27.7966V25.9057C49.0768 25.2392 50.3688 23.4454 50.3688 21.3419C50.3688 18.6723 48.2896 16.5007 45.7335 16.5007C44.8817 16.5007 44.1886 15.7769 44.1886 14.8872C44.1886 13.9975 44.8817 13.2731 45.7335 13.2731C46.2811 13.2731 46.8588 13.565 47.4046 14.1167C48.0179 14.7365 48.9959 14.7195 49.5894 14.0795C50.1828 13.4389 50.1665 12.4174 49.5538 11.7976C48.7696 11.0051 47.9847 10.5568 47.2784 10.3121V8.43251C47.2784 7.54094 46.5866 6.81836 45.7335 6.81836C44.8805 6.81836 44.1886 7.54094 44.1886 8.43251Z" fill="black"/>
</svg>
