<svg width="34" height="35" viewBox="0 0 34 35" fill="none" xmlns="http://www.w3.org/2000/svg">
<circle cx="16.902" cy="16.902" r="16.402" stroke="#2C2929"/>
<g filter="url(#filter0_d)">
<path d="M26.3705 12.7C26.3253 11.6735 26.1591 10.9679 25.9211 10.3564C25.6756 9.70737 25.2979 9.12628 24.8031 8.64321C24.3196 8.15263 23.7341 7.77142 23.092 7.52996C22.4765 7.29219 21.7739 7.1262 20.7466 7.08095C19.7115 7.03186 19.383 7.02051 16.7579 7.02051C14.1329 7.02051 13.8043 7.03186 12.7731 7.07711C11.7458 7.12237 11.0395 7.2885 10.4276 7.52613C9.77786 7.77142 9.19626 8.14879 8.71276 8.64321C8.22174 9.12628 7.84035 9.7112 7.59853 10.3527C7.36054 10.9679 7.19441 11.6697 7.14912 12.6961C7.09998 13.7302 7.08862 14.0585 7.08862 16.6812C7.08862 19.304 7.09998 19.6323 7.14528 20.6625C7.19057 21.689 7.35685 22.3946 7.59484 23.0061C7.84035 23.6551 8.22174 24.2362 8.71276 24.7193C9.19626 25.2099 9.7817 25.5911 10.4238 25.8325C11.0395 26.0703 11.7419 26.2363 12.7694 26.2816C13.8004 26.327 14.1292 26.3382 16.7542 26.3382C19.3793 26.3382 19.7079 26.327 20.739 26.2816C21.7664 26.2363 22.4726 26.0703 23.0845 25.8325C24.3839 25.3306 25.4112 24.3042 25.9136 23.0061C26.1514 22.3909 26.3177 21.689 26.363 20.6625C26.4083 19.6323 26.4197 19.304 26.4197 16.6812C26.4197 14.0585 26.4158 13.7302 26.3705 12.7ZM24.6294 20.5871C24.5878 21.5305 24.4292 22.0399 24.297 22.3796C23.9721 23.2211 23.3036 23.8891 22.4613 24.2137C22.1213 24.3457 21.6078 24.5042 20.6672 24.5456C19.6474 24.591 19.3415 24.6022 16.7617 24.6022C14.182 24.6022 13.8723 24.591 12.8562 24.5456C11.9119 24.5042 11.402 24.3457 11.0621 24.2137C10.6429 24.0589 10.2614 23.8136 9.95167 23.4928C9.63062 23.1796 9.38511 22.8022 9.23019 22.3834C9.09799 22.0438 8.93939 21.5305 8.89793 20.5909C8.85248 19.572 8.84127 19.2663 8.84127 16.6888C8.84127 14.1113 8.85248 13.8019 8.89793 12.7868C8.93939 11.8434 9.09799 11.3339 9.23019 10.9943C9.38511 10.5753 9.63062 10.1943 9.9555 9.88471C10.2689 9.56394 10.6466 9.31865 11.0659 9.16401C11.4058 9.03193 11.9196 8.87347 12.86 8.8319C13.8798 8.78664 14.1858 8.77529 16.7654 8.77529C19.349 8.77529 19.6549 8.78664 20.671 8.8319C21.6153 8.87347 22.1252 9.03193 22.4651 9.16401C22.8843 9.31865 23.2658 9.56394 23.5755 9.88471C23.8966 10.198 24.1421 10.5753 24.297 10.9943C24.4292 11.3339 24.5878 11.847 24.6294 12.7868C24.6747 13.8057 24.6861 14.1113 24.6861 16.6888C24.6861 19.2663 24.6747 19.5681 24.6294 20.5871Z" fill="#2C2929"/>
<path d="M16.7596 11.7188C14.0175 11.7188 11.7927 13.9414 11.7927 16.6812C11.7927 19.421 14.0175 21.6436 16.7596 21.6436C19.5018 21.6436 21.7264 19.421 21.7264 16.6812C21.7264 13.9414 19.5018 11.7188 16.7596 11.7188ZM16.7596 19.9002C14.9807 19.9002 13.5377 18.4587 13.5377 16.6812C13.5377 14.9037 14.9807 13.4622 16.7596 13.4622C18.5386 13.4622 19.9815 14.9037 19.9815 16.6812C19.9815 18.4587 18.5386 19.9002 16.7596 19.9002Z" fill="#2C2929"/>
<path d="M23.0801 11.5218C23.0801 12.1616 22.5609 12.6803 21.9204 12.6803C21.2801 12.6803 20.7609 12.1616 20.7609 11.5218C20.7609 10.8819 21.2801 10.3633 21.9204 10.3633C22.5609 10.3633 23.0801 10.8819 23.0801 11.5218Z" fill="#2C2929"/>
</g>
<defs>
<filter id="filter0_d" x="3.08862" y="7.02051" width="27.3311" height="27.3176" filterUnits="userSpaceOnUse" color-interpolation-filters="sRGB">
<feFlood flood-opacity="0" result="BackgroundImageFix"/>
<feColorMatrix in="SourceAlpha" type="matrix" values="0 0 0 0 0 0 0 0 0 0 0 0 0 0 0 0 0 0 127 0"/>
<feOffset dy="4"/>
<feGaussianBlur stdDeviation="2"/>
<feColorMatrix type="matrix" values="0 0 0 0 0 0 0 0 0 0 0 0 0 0 0 0 0 0 0.25 0"/>
<feBlend mode="normal" in2="BackgroundImageFix" result="effect1_dropShadow"/>
<feBlend mode="normal" in="SourceGraphic" in2="effect1_dropShadow" result="shape"/>
</filter>
</defs>
</svg>
