<?xml version="1.0" standalone="no"?>
<!DOCTYPE svg PUBLIC "-//W3C//DTD SVG 20010904//EN"
 "http://www.w3.org/TR/2001/REC-SVG-20010904/DTD/svg10.dtd">
<svg version="1.0" xmlns="http://www.w3.org/2000/svg"
 width="987.000000pt" height="390.000000pt" viewBox="0 0 987.000000 390.000000"
 preserveAspectRatio="xMidYMid meet">

<g transform="translate(0.000000,390.000000) scale(0.100000,-0.100000)"
fill="#000000" stroke="none">
<path d="M4637 3210 c-59 -15 -91 -36 -136 -86 -51 -58 -74 -130 -75 -239 -1
-152 53 -244 230 -392 198 -165 229 -211 229 -333 0 -127 -50 -185 -160 -185
-110 0 -154 52 -163 190 l-5 85 -68 0 -69 0 0 -77 c0 -145 54 -259 143 -302
70 -34 156 -47 227 -33 113 21 174 66 219 162 23 49 26 68 26 165 0 105 -2
113 -33 175 -40 79 -88 132 -212 236 -173 144 -210 200 -210 319 0 121 53 185
154 185 98 0 148 -53 156 -164 l5 -71 74 -3 74 -3 -6 75 c-17 197 -110 296
-286 302 -42 2 -93 -1 -114 -6z"/>
<path d="M850 2530 l0 -680 75 0 75 0 -2 678 -3 677 -72 3 -73 3 0 -681z"/>
<path d="M1500 2530 l0 -680 70 0 70 0 1 538 1 537 39 -120 c22 -66 99 -307
172 -535 l133 -415 82 -3 82 -3 0 681 0 681 -67 -3 -68 -3 -5 -479 -5 -480
-128 395 c-71 216 -141 432 -156 479 l-28 85 -96 3 -97 3 0 -681z"/>
<path d="M2647 3203 c-4 -3 -7 -309 -7 -680 l0 -673 70 0 70 0 0 537 c0 295 3
533 7 530 3 -4 83 -244 177 -534 l172 -528 82 -3 82 -3 -2 678 -3 678 -65 0
-65 0 -5 -480 -5 -480 -119 360 c-65 198 -136 415 -158 483 l-39 122 -93 0
c-51 0 -96 -3 -99 -7z"/>
<path d="M5520 2530 l0 -680 275 0 275 0 0 65 0 65 -200 0 -200 0 -2 613 -3
612 -72 3 -73 3 0 -681z"/>
<path d="M6527 3203 c-4 -3 -7 -309 -7 -680 l0 -673 285 0 285 0 0 65 0 65
-205 0 -205 0 0 245 0 245 170 0 170 0 0 65 0 65 -170 0 -170 0 0 235 0 235
205 0 205 0 0 70 0 70 -278 0 c-153 0 -282 -3 -285 -7z"/>
<path d="M7577 3203 c-4 -3 -7 -309 -7 -680 l0 -673 285 0 285 0 0 65 0 65
-205 0 -205 0 0 245 0 245 168 2 167 3 3 63 3 62 -171 0 -170 0 0 235 0 235
205 0 205 0 0 70 0 70 -278 0 c-153 0 -282 -3 -285 -7z"/>
<path d="M8630 2530 l0 -680 75 0 75 0 0 264 0 263 118 6 c141 7 200 26 258
83 63 62 76 111 82 300 5 187 -8 259 -61 333 -63 87 -147 111 -394 111 l-153
0 0 -680z m394 517 c51 -34 61 -74 61 -257 0 -148 -2 -169 -20 -200 -32 -54
-74 -70 -187 -70 l-98 0 0 276 0 276 108 -3 c83 -3 115 -8 136 -22z"/>
<path d="M190 1195 l0 -35 4840 0 4840 0 0 35 0 35 -4840 0 -4840 0 0 -35z"/>
<path d="M1762 508 l3 -123 25 0 c23 0 25 4 28 48 l3 47 54 0 54 0 3 -47 c3
-41 6 -48 26 -51 22 -3 22 -2 22 123 0 125 0 126 -22 123 -20 -3 -23 -10 -26
-50 l-3 -48 -54 0 -54 0 -3 48 c-3 43 -5 47 -31 50 l-28 3 3 -123z"/>
<path d="M2134 617 c-2 -7 -3 -62 -2 -123 l3 -109 95 0 c88 0 95 1 95 20 0 18
-8 20 -67 23 -68 3 -68 3 -68 32 0 30 0 30 60 30 53 0 60 2 60 20 0 18 -7 20
-60 20 -57 0 -60 1 -60 25 0 24 2 25 65 25 63 0 65 1 65 25 0 25 -1 25 -90 25
-66 0 -92 -4 -96 -13z"/>
<path d="M2516 577 c-13 -29 -37 -83 -54 -120 -26 -56 -29 -69 -17 -74 23 -8
44 4 55 32 9 23 15 25 64 25 51 0 57 -2 71 -30 11 -21 23 -30 40 -30 14 0 25
4 25 9 0 5 -25 61 -55 125 -49 104 -57 116 -80 116 -22 0 -30 -9 -49 -53z m69
-47 c22 -42 19 -50 -20 -50 -19 0 -35 2 -35 4 0 9 31 76 35 76 2 0 11 -13 20
-30z"/>
<path d="M2822 508 l3 -123 88 -3 87 -3 0 26 c0 24 -2 25 -60 25 l-59 0 -3 98
-3 97 -28 3 -28 3 3 -123z"/>
<path d="M3100 606 c0 -21 5 -25 38 -28 l37 -3 3 -97 c3 -97 3 -98 27 -98 25
0 25 0 25 100 l0 100 41 0 c36 0 40 2 37 23 -3 21 -8 22 -105 25 l-103 3 0
-25z"/>
<path d="M3435 618 c-3 -8 -4 -63 -3 -124 3 -109 3 -109 28 -109 23 0 25 4 28
48 l3 47 54 0 54 0 3 -47 c3 -44 5 -48 28 -48 l25 0 0 120 0 120 -27 3 c-27 3
-28 2 -28 -47 l0 -51 -54 0 -55 0 -3 48 c-3 40 -6 47 -26 50 -12 2 -24 -3 -27
-10z"/>
<path d="M3780 621 c0 -5 20 -42 45 -82 35 -57 45 -83 45 -116 0 -39 2 -43 25
-43 23 0 25 4 25 43 0 33 10 59 45 115 51 81 54 92 25 92 -13 0 -32 -19 -56
-55 l-37 -55 -34 55 c-26 42 -40 55 -59 55 -13 0 -24 -4 -24 -9z"/>
<path d="M4352 620 c-28 -12 -46 -51 -39 -82 7 -27 31 -42 95 -58 47 -12 56
-34 19 -51 -17 -8 -34 -7 -64 4 -37 12 -43 12 -47 0 -10 -25 -7 -31 25 -42 86
-30 169 3 169 67 0 27 -32 52 -87 68 -61 18 -69 26 -46 49 15 16 36 17 93 3 9
-2 16 6 18 18 2 15 -4 23 -20 28 -32 8 -89 6 -116 -4z"/>
<path d="M4640 505 l0 -126 88 3 c79 3 87 5 87 23 0 18 -8 20 -62 23 l-63 3 0
99 c0 100 0 100 -25 100 l-25 0 0 -125z"/>
<path d="M4944 617 c-2 -7 -3 -62 -2 -123 l3 -109 93 -3 92 -3 0 25 c0 24 -3
25 -67 28 -65 3 -68 4 -68 28 0 23 4 25 58 28 49 3 57 6 57 22 0 18 -7 20 -61
20 -57 0 -60 1 -57 23 3 20 10 23 68 27 57 4 65 8 65 25 0 18 -8 20 -88 23
-66 2 -89 0 -93 -11z"/>
<path d="M5270 505 l0 -126 93 3 c84 3 92 5 92 23 0 18 -8 20 -68 23 -68 3
-68 3 -65 30 3 25 6 27 61 30 49 3 57 6 57 22 0 18 -7 20 -60 20 -57 0 -60 1
-60 25 0 24 2 25 65 25 63 0 65 1 65 25 0 25 -1 25 -90 25 l-90 0 0 -125z"/>
<path d="M5600 504 c0 -124 0 -125 23 -122 17 2 23 11 25 36 3 30 5 32 45 32
86 0 137 63 103 128 -19 37 -60 52 -137 52 l-59 0 0 -126z m144 54 c18 -29 -4
-53 -53 -56 l-41 -3 0 41 0 41 41 -3 c27 -2 46 -9 53 -20z"/>
<path d="M6130 505 l0 -126 93 3 c87 3 92 4 95 26 3 21 0 22 -62 22 l-66 0 0
30 c0 30 1 30 55 30 48 0 55 2 55 20 0 18 -7 20 -55 20 -52 0 -55 1 -55 25 0
23 4 24 63 27 54 3 62 5 62 23 0 18 -8 20 -92 23 l-93 3 0 -126z"/>
<path d="M6440 624 c0 -3 13 -23 29 -43 53 -68 53 -70 10 -131 -21 -30 -39
-58 -39 -62 0 -5 11 -8 25 -8 18 0 33 11 53 40 15 21 30 39 34 40 3 0 21 -18
38 -40 21 -27 40 -40 56 -40 13 0 24 4 24 8 0 5 -18 33 -40 62 -22 29 -40 57
-40 60 0 4 16 28 35 53 41 54 43 67 11 67 -16 0 -31 -12 -50 -40 -14 -22 -28
-40 -31 -40 -3 0 -17 18 -31 40 -21 31 -33 40 -55 40 -16 0 -29 -3 -29 -6z"/>
<path d="M6800 506 l0 -126 24 0 c21 0 25 6 28 33 3 31 5 32 56 39 72 8 104
38 100 92 -4 58 -39 80 -134 84 l-74 4 0 -126z m150 54 c19 -36 -3 -60 -55
-60 -44 0 -45 1 -45 33 0 43 5 47 51 47 28 0 41 -5 49 -20z"/>
<path d="M7150 505 l0 -126 93 3 c84 3 92 5 92 23 0 18 -8 20 -68 23 -68 3
-68 3 -65 30 3 25 6 27 61 30 49 3 57 6 57 22 0 18 -7 20 -60 20 -57 0 -60 1
-60 25 0 24 2 25 65 25 63 0 65 1 65 25 0 25 -1 25 -90 25 l-90 0 0 -125z"/>
<path d="M7470 505 l0 -126 28 3 c22 2 28 8 30 36 3 27 7 32 30 32 20 0 34
-10 51 -35 16 -23 31 -35 47 -35 30 0 30 12 2 52 -17 22 -19 32 -10 35 20 8
43 61 36 87 -3 13 -17 35 -31 48 -20 19 -37 24 -104 27 l-79 3 0 -127z m154
53 c18 -29 -4 -53 -53 -56 l-41 -3 0 41 0 41 41 -3 c27 -2 46 -9 53 -20z"/>
<path d="M7800 605 c0 -22 4 -25 35 -25 l34 0 3 -97 c3 -97 3 -98 28 -98 25 0
25 1 28 97 l3 97 37 3 c29 2 37 7 37 23 0 19 -8 20 -102 23 l-103 3 0 -26z"/>
<path d="M8139 601 c-16 -16 -29 -36 -29 -44 0 -27 35 -56 89 -74 61 -20 73
-36 41 -53 -17 -9 -33 -9 -68 0 -36 9 -47 8 -53 -2 -16 -26 18 -43 85 -43 76
0 106 20 106 70 0 40 -13 51 -78 70 -58 18 -69 29 -51 51 13 16 50 15 90 -1
11 -4 19 0 23 12 10 26 -20 43 -77 43 -40 0 -53 -5 -78 -29z"/>
</g>
</svg>
