<svg width="20" height="21" viewBox="0 0 20 21" fill="none" xmlns="http://www.w3.org/2000/svg">
<path d="M18.3952 14.0829C17.1707 14.0829 15.9684 13.8915 14.8291 13.5154C14.2708 13.3251 13.5845 13.4996 13.2438 13.8493L10.995 15.5454C8.38701 14.1545 6.78056 12.55 5.40743 9.96387L7.05509 7.77561C7.48316 7.34848 7.6367 6.72456 7.45274 6.13914C7.07462 4.99484 6.88253 3.79419 6.88253 2.57027C6.88259 1.68611 6.16264 0.966797 5.27775 0.966797H1.60484C0.719946 0.966797 0 1.68611 0 2.57022C0 12.7045 8.25196 20.9491 18.3952 20.9491C19.2801 20.9491 20 20.2298 20 19.3457V15.6862C19.9999 14.8022 19.28 14.0829 18.3952 14.0829Z" fill="#7216BC"/>
</svg>
