<svg width="35" height="34" viewBox="0 0 35 34" fill="none" xmlns="http://www.w3.org/2000/svg">
<circle cx="17.3356" cy="16.902" r="16.402" stroke="#2C2929"/>
<path d="M26.7551 18.1786C27.3896 12.8424 26.4502 9.47346 24.7559 7.94971L24.7568 7.94883C22.0221 5.34667 12.7864 4.96153 9.5147 8.0657C8.04543 9.58413 7.52791 11.8127 7.4712 14.5715C7.41448 17.3313 7.34714 22.501 12.1688 23.9035H12.1732L12.1688 26.0452C12.1688 26.0452 12.136 26.9129 12.6907 27.0873C13.3252 27.2928 13.6123 26.8899 15.5858 24.5348C18.8859 24.8208 21.4204 24.1656 21.7084 24.07C22.3748 23.8468 26.1454 23.3484 26.7551 18.1786ZM15.0293 23.3052C15.0293 23.3052 13.6339 25.4299 12.9843 26.1055C12.9843 26.1055 13.1853 26.1324 13.1888 25.6968C13.1888 25.4108 13.3933 23.0407 13.3933 23.0407C9.30543 21.8702 8.8997 16.9408 8.94401 14.6379C8.98832 12.3341 9.41013 10.4474 10.6543 9.17686C13.5246 6.48794 21.6215 7.08911 23.6845 9.02634C26.2065 11.2602 25.3089 17.5712 25.3142 17.7864C24.7958 22.1017 21.7403 22.3753 21.1784 22.5621C20.9383 22.6418 17.8278 23.492 15.0293 23.3052Z" fill="#373333"/>
<path d="M17.0686 9.68262C16.7274 9.68262 16.7274 10.2139 17.0686 10.2183C19.7156 10.2386 21.8956 12.082 21.9195 15.4633C21.9195 15.8201 22.4424 15.8157 22.438 15.4589H22.4371C22.4087 11.8155 20.0285 9.70298 17.0686 9.68262Z" fill="#2C2929"/>
<path d="M20.5515 14.9028C20.5436 15.2552 21.0655 15.272 21.0699 14.9152C21.1134 12.9062 19.8736 11.2514 17.5439 11.077C17.2028 11.0522 17.1673 11.5879 17.5076 11.6127C19.528 11.7658 20.5923 13.1435 20.5515 14.9028Z" fill="#2C2929"/>
<path d="M19.9898 17.1876C19.5521 16.9344 19.1063 17.092 18.922 17.3408L18.5365 17.8393C18.3407 18.0925 17.9747 18.0589 17.9747 18.0589C15.3037 17.3532 14.5895 14.5607 14.5895 14.5607C14.5895 14.5607 14.5567 14.1826 14.8013 13.9799L15.2834 13.5815C15.5244 13.3902 15.6768 12.9298 15.4313 12.4774C14.7756 11.2936 14.3351 10.8855 14.1109 10.572C13.8752 10.2772 13.5208 10.2108 13.1521 10.41H13.1441C12.3776 10.858 11.5384 11.6965 11.8069 12.5597C12.265 13.4699 13.1069 16.3713 15.7902 18.5635C17.0513 19.6003 19.0469 20.6628 19.8941 20.908L19.9021 20.9204C20.7369 21.1984 21.5486 20.3272 21.982 19.5383V19.5321C22.1743 19.1505 22.1105 18.7893 21.8295 18.5529C21.3315 18.0677 20.58 17.5321 19.9898 17.1876Z" fill="#2C2929"/>
<path d="M17.9033 13.0538C18.7549 13.1034 19.1679 13.5478 19.2122 14.4607C19.2281 14.8175 19.7465 14.7927 19.7306 14.4359C19.6739 13.2442 19.0518 12.5801 17.9317 12.5181C17.5905 12.4978 17.5586 13.0334 17.9033 13.0538Z" fill="#2C2929"/>
</svg>
