<svg width="35" height="34" viewBox="0 0 35 34" fill="none" xmlns="http://www.w3.org/2000/svg">
<circle cx="17.2028" cy="16.902" r="16.402" stroke="#2C2929"/>
<path d="M17.0312 5.87793H17.0262C11.5183 5.87793 7.03918 10.3543 7.03918 15.8587C7.03918 18.0419 7.74345 20.0655 8.94095 21.7086L7.696 25.4165L11.5357 24.1901C13.1153 25.2356 14.9996 25.8394 17.0312 25.8394C22.5392 25.8394 27.0183 21.3618 27.0183 15.8587C27.0183 10.3555 22.5392 5.87793 17.0312 5.87793ZM22.8439 19.972C22.6029 20.6519 21.6464 21.2158 20.8835 21.3805C20.3615 21.4915 19.6797 21.5801 17.3846 20.6294C14.4489 19.4143 12.5584 16.4338 12.4111 16.2404C12.27 16.047 11.2248 14.6622 11.2248 13.23C11.2248 11.7977 11.9528 11.1003 12.2462 10.8009C12.4872 10.5551 12.8856 10.4429 13.2677 10.4429C13.3913 10.4429 13.5024 10.4491 13.6023 10.4541C13.8958 10.4666 14.0431 10.484 14.2367 10.9469C14.4777 11.527 15.0645 12.9593 15.1345 13.1065C15.2057 13.2537 15.2768 13.4533 15.1769 13.6467C15.0833 13.8463 15.0009 13.9349 14.8535 14.1045C14.7062 14.2742 14.5663 14.404 14.419 14.5861C14.2841 14.7446 14.1318 14.9142 14.3016 15.2074C14.4714 15.4944 15.0583 16.4513 15.9224 17.2198C17.0375 18.2116 17.9415 18.5285 18.265 18.6632C18.506 18.7631 18.7932 18.7393 18.9692 18.5522C19.1927 18.3114 19.4687 17.9122 19.7497 17.5192C19.9494 17.2372 20.2017 17.2023 20.4664 17.3021C20.7361 17.3957 22.1634 18.1006 22.4568 18.2465C22.7503 18.3938 22.9438 18.4636 23.015 18.5871C23.0849 18.7107 23.0849 19.2908 22.8439 19.972Z" fill="#322E2E"/>
</svg>
